<svg width="77" height="77" viewBox="0 0 77 77" fill="none" xmlns="http://www.w3.org/2000/svg">
<mask id="path-1-inside-1_852_867" fill="white">
<path d="M0 13.5C0 6.04415 6.04416 0 13.5 0H62.78C70.2358 0 76.28 6.04416 76.28 13.5V62.78C76.28 70.2358 70.2358 76.28 62.78 76.28H13.5C6.04415 76.28 0 70.2358 0 62.78V13.5Z"/>
</mask>
<path d="M0 13.5C0 6.04415 6.04416 0 13.5 0H62.78C70.2358 0 76.28 6.04416 76.28 13.5V62.78C76.28 70.2358 70.2358 76.28 62.78 76.28H13.5C6.04415 76.28 0 70.2358 0 62.78V13.5Z" fill="#FFE1A0"/>
<path d="M13.5 0V2.66667H62.78V0V-2.66667H13.5V0ZM76.28 13.5H73.6133V62.78H76.28H78.9467V13.5H76.28ZM62.78 76.28V73.6133H13.5V76.28V78.9467H62.78V76.28ZM0 62.78H2.66667V13.5H0H-2.66667V62.78H0ZM13.5 76.28V73.6133C7.51691 73.6133 2.66667 68.7631 2.66667 62.78H0H-2.66667C-2.66667 71.7086 4.57139 78.9467 13.5 78.9467V76.28ZM76.28 62.78H73.6133C73.6133 68.7631 68.7631 73.6133 62.78 73.6133V76.28V78.9467C71.7086 78.9467 78.9467 71.7086 78.9467 62.78H76.28ZM62.78 0V2.66667C68.7631 2.66667 73.6133 7.51692 73.6133 13.5H76.28H78.9467C78.9467 4.5714 71.7086 -2.66667 62.78 -2.66667V0ZM13.5 0V-2.66667C4.5714 -2.66667 -2.66667 4.57139 -2.66667 13.5H0H2.66667C2.66667 7.51691 7.51692 2.66667 13.5 2.66667V0Z" fill="#FFB411" mask="url(#path-1-inside-1_852_867)"/>
<g clip-path="url(#clip0_852_867)">
<path d="M45.7564 29.4736L27.2106 34.4429C25.5035 34.9003 24.4904 36.655 24.9478 38.3621L26.6043 44.544C27.0617 46.2511 28.8164 47.2642 30.5235 46.8067L49.0693 41.8374C50.7763 41.38 51.7894 39.6253 51.332 37.9182L49.6756 31.7363C49.2181 30.0292 47.4635 29.0162 45.7564 29.4736Z" fill="#FFE2C2" stroke="#DCA26E"/>
<path d="M40.9685 33.2411L33.2411 35.3117C31.9608 35.6548 31.201 36.9708 31.544 38.2511L32.3722 41.342C32.7153 42.6224 34.0313 43.3822 35.3116 43.0391L43.039 40.9686C44.3194 40.6255 45.0791 39.3095 44.7361 38.0292L43.9079 34.9382C43.5648 33.6579 42.2488 32.8981 40.9685 33.2411Z" fill="#FFCF9E"/>
</g>
<defs>
<clipPath id="clip0_852_867">
<rect width="32" height="32" fill="white" transform="translate(18.5439 26.8264) rotate(-15)"/>
</clipPath>
</defs>
</svg>
