<svg width="77" height="77" viewBox="0 0 77 77" fill="none" xmlns="http://www.w3.org/2000/svg">
<mask id="path-1-inside-1_852_857" fill="white">
<path d="M0 13.5C0 6.04415 6.04416 0 13.5 0H62.78C70.2358 0 76.28 6.04416 76.28 13.5V62.78C76.28 70.2358 70.2358 76.28 62.78 76.28H13.5C6.04415 76.28 0 70.2358 0 62.78V13.5Z"/>
</mask>
<path d="M0 13.5C0 6.04415 6.04416 0 13.5 0H62.78C70.2358 0 76.28 6.04416 76.28 13.5V62.78C76.28 70.2358 70.2358 76.28 62.78 76.28H13.5C6.04415 76.28 0 70.2358 0 62.78V13.5Z" fill="#FFE1A0"/>
<path d="M13.5 0V2.66667H62.78V0V-2.66667H13.5V0ZM76.28 13.5H73.6133V62.78H76.28H78.9467V13.5H76.28ZM62.78 76.28V73.6133H13.5V76.28V78.9467H62.78V76.28ZM0 62.78H2.66667V13.5H0H-2.66667V62.78H0ZM13.5 76.28V73.6133C7.51691 73.6133 2.66667 68.7631 2.66667 62.78H0H-2.66667C-2.66667 71.7086 4.57139 78.9467 13.5 78.9467V76.28ZM76.28 62.78H73.6133C73.6133 68.7631 68.7631 73.6133 62.78 73.6133V76.28V78.9467C71.7086 78.9467 78.9467 71.7086 78.9467 62.78H76.28ZM62.78 0V2.66667C68.7631 2.66667 73.6133 7.51692 73.6133 13.5H76.28H78.9467C78.9467 4.5714 71.7086 -2.66667 62.78 -2.66667V0ZM13.5 0V-2.66667C4.5714 -2.66667 -2.66667 4.57139 -2.66667 13.5H0H2.66667C2.66667 7.51691 7.51692 2.66667 13.5 2.66667V0Z" fill="#FFB411" mask="url(#path-1-inside-1_852_857)"/>
<g clip-path="url(#clip0_852_857)">
<path d="M22.1396 33.3539C22.1396 30.9041 24.9171 29.4872 26.9005 30.9251L33.3528 35.6029C34.9922 36.7915 35.0075 39.2294 33.3831 40.4383L26.9309 45.2408C24.9518 46.7138 22.1396 45.3013 22.1396 42.8342V33.3539Z" fill="#FF4B4B"/>
<path d="M54.1398 33.4094C54.1398 30.9492 51.3414 29.5349 49.3606 30.994L42.9383 35.7247C41.3106 36.9237 41.3106 39.3566 42.9383 40.5556L49.3606 45.2864C51.3414 46.7455 54.1398 45.3312 54.1398 42.871V33.4094Z" fill="#FF4B4B"/>
<path d="M33.9706 36.5965C33.5681 35.3087 34.5303 34 35.8796 34H40.4388C41.7881 34 42.7502 35.3087 42.3478 36.5965L42.0956 37.4035C41.9742 37.7919 41.9742 38.2081 42.0956 38.5965L42.3478 39.4035C42.7502 40.6913 41.7881 42 40.4388 42H35.8796C34.5303 42 33.5681 40.6913 33.9706 39.4035L34.2228 38.5965C34.3441 38.2081 34.3441 37.7919 34.2228 37.4035L33.9706 36.5965Z" fill="#E62E2E"/>
</g>
<defs>
<clipPath id="clip0_852_857">
<rect width="32" height="32" fill="white" transform="translate(22.1396 22.1401)"/>
</clipPath>
</defs>
</svg>
