<svg width="20" height="20" viewBox="0 0 20 20" fill="none" xmlns="http://www.w3.org/2000/svg">
<path d="M15.8375 2.02251C15.7703 1.89268 15.6686 1.78388 15.5436 1.70803C15.4186 1.63219 15.2751 1.59223 15.1289 1.59253H7.96261C7.65207 1.59253 7.36542 1.77567 7.23802 2.06232L3.25677 10.8211C3.1453 11.0679 3.16919 11.3546 3.31251 11.5855C3.45584 11.8164 3.71064 11.9517 3.98136 11.9517H7.96261V16.7292C7.96261 16.9404 8.0465 17.143 8.19583 17.2923C8.34515 17.4416 8.54768 17.5255 8.75886 17.5255C9.0057 17.5255 9.25254 17.4061 9.40383 17.199L15.7738 8.44028C15.8596 8.32148 15.911 8.1813 15.9222 8.03519C15.9334 7.88908 15.9041 7.74271 15.8375 7.61218C15.7721 7.48029 15.671 7.36935 15.5458 7.29195C15.4205 7.21455 15.2761 7.17378 15.1289 7.17424H12.6923L15.7738 2.85857C15.8596 2.73977 15.911 2.59959 15.9222 2.45348C15.9334 2.30737 15.9041 2.16099 15.8375 2.03047V2.02251Z" fill="#FFC341"/>
</svg>
