<svg width="402" height="170" viewBox="0 0 402 170" fill="none" xmlns="http://www.w3.org/2000/svg">
<rect x="174" y="129" width="114" height="41" fill="#C4210C"/>
<rect x="136" y="129" width="38" height="41" fill="#FFB411"/>
<rect x="60" y="88" width="114" height="41" fill="#416FA3"/>
<rect x="174" y="88" width="76" height="41" fill="#FFB411"/>
<rect x="250" y="88" width="76" height="41" fill="#C4210C"/>
<rect x="364" y="88" width="38" height="41" fill="#FFB411"/>
<rect x="364" y="47" width="38" height="41" fill="#C4210C"/>
<rect x="69" y="41" width="20" height="6" fill="#C4210C"/>
<rect x="31" y="41" width="20" height="6" fill="#C4210C"/>
<rect x="22" y="47" width="76" height="41" fill="#C4210C"/>
<rect x="212" y="47" width="38" height="41" fill="#C4210C"/>
<rect x="136" y="6" width="114" height="41" fill="#416FA3"/>
<rect x="183" width="20" height="6" fill="#416FA3"/>
<rect x="147" width="20" height="6" fill="#416FA3"/>
<rect x="219" width="20" height="6" fill="#416FA3"/>
<rect x="250" y="47" width="114" height="41" fill="#416FA3"/>
<rect x="297" y="41" width="20" height="6" fill="#416FA3"/>
<rect x="259" y="41" width="20" height="6" fill="#416FA3"/>
<rect x="326" y="6" width="76" height="41" fill="#FFB411"/>
<rect x="373" width="20" height="6" fill="#FFB411"/>
<rect x="335" width="20" height="6" fill="#FFB411"/>
<rect x="288" y="129" width="114" height="41" fill="#416FA3"/>
<rect x="335" y="123" width="20" height="6" fill="#416FA3"/>
<rect x="98" y="47" width="114" height="41" fill="#FFB411"/>
<rect x="107" y="41" width="20" height="6" fill="#FFB411"/>
<rect y="129" width="98" height="41" fill="#C4210C"/>
<rect x="31" y="123" width="20" height="6" fill="#C4210C"/>
<rect y="88" width="22" height="41" fill="#416FA3"/>
<rect y="82" width="13" height="6" fill="#416FA3"/>
</svg>
