<svg width="347" height="101" viewBox="0 0 347 101" fill="none" xmlns="http://www.w3.org/2000/svg">
<path d="M0 20C0 8.95431 8.95431 0 20 0H307C329.091 0 347 17.9086 347 40V61C347 83.0914 329.091 101 307 101H20C8.95432 101 0 92.0457 0 81V20Z" fill="#FFE9B8"/>
<circle cx="315" cy="51" r="20" fill="#FFB411"/>
<path d="M323.75 49.75H316.25V42.25C316.25 41.9185 316.118 41.6005 315.884 41.3661C315.649 41.1317 315.332 41 315 41C314.668 41 314.351 41.1317 314.116 41.3661C313.882 41.6005 313.75 41.9185 313.75 42.25V49.75H306.25C305.918 49.75 305.601 49.8817 305.366 50.1161C305.132 50.3505 305 50.6685 305 51C305 51.3315 305.132 51.6495 305.366 51.8839C305.601 52.1183 305.918 52.25 306.25 52.25H313.75V59.75C313.75 60.0815 313.882 60.3995 314.116 60.6339C314.351 60.8683 314.668 61 315 61C315.332 61 315.649 60.8683 315.884 60.6339C316.118 60.3995 316.25 60.0815 316.25 59.75V52.25H323.75C324.082 52.25 324.399 52.1183 324.634 51.8839C324.868 51.6495 325 51.3315 325 51C325 50.6685 324.868 50.3505 324.634 50.1161C324.399 49.8817 324.082 49.75 323.75 49.75Z" fill="#2A2A2A"/>
<path d="M125.208 43.224C124.024 43.224 123.011 42.984 122.168 42.504C121.325 42.0187 120.68 41.3387 120.232 40.464C119.784 39.5893 119.56 38.5627 119.56 37.384C119.56 36.216 119.808 35.1973 120.304 34.328C120.805 33.4533 121.496 32.776 122.376 32.296C123.256 31.816 124.269 31.576 125.416 31.576C126.008 31.576 126.573 31.6373 127.112 31.76C127.656 31.8827 128.12 32.04 128.504 32.232L128.28 34.184C127.88 33.9973 127.437 33.8453 126.952 33.728C126.472 33.6053 125.96 33.544 125.416 33.544C124.584 33.544 123.901 33.712 123.368 34.048C122.835 34.3787 122.44 34.832 122.184 35.408C121.928 35.9787 121.8 36.6267 121.8 37.352C121.8 38.1147 121.928 38.7893 122.184 39.376C122.445 39.9627 122.835 40.424 123.352 40.76C123.869 41.0907 124.515 41.256 125.288 41.256C125.523 41.256 125.768 41.24 126.024 41.208C126.285 41.176 126.552 41.1333 126.824 41.08V39.08H125.288V37.384H128.872V42.376C128.483 42.6053 127.965 42.8053 127.32 42.976C126.68 43.1413 125.976 43.224 125.208 43.224ZM130.268 43V35H132.124L132.172 35.848C132.374 35.624 132.66 35.4 133.028 35.176C133.396 34.952 133.798 34.84 134.236 34.84C134.364 34.84 134.481 34.8507 134.588 34.872L134.444 36.824C134.326 36.792 134.209 36.7707 134.092 36.76C133.98 36.7493 133.868 36.744 133.756 36.744C133.42 36.744 133.113 36.8213 132.836 36.976C132.558 37.1307 132.364 37.32 132.252 37.544V43H130.268ZM139.088 43.16C138.123 43.16 137.318 42.968 136.672 42.584C136.032 42.1947 135.552 41.6827 135.232 41.048C134.912 40.408 134.752 39.7093 134.752 38.952C134.752 38.2213 134.902 37.5467 135.2 36.928C135.504 36.3093 135.947 35.8133 136.528 35.44C137.11 35.0613 137.819 34.872 138.656 34.872C139.424 34.872 140.064 35.0293 140.576 35.344C141.088 35.6587 141.472 36.08 141.728 36.608C141.984 37.1307 142.112 37.7093 142.112 38.344C142.112 38.52 142.102 38.6987 142.08 38.88C142.059 39.056 142.027 39.24 141.984 39.432H136.816C136.891 39.928 137.046 40.3307 137.28 40.64C137.52 40.944 137.811 41.168 138.152 41.312C138.499 41.456 138.87 41.528 139.264 41.528C139.728 41.528 140.16 41.4693 140.56 41.352C140.96 41.2293 141.328 41.0693 141.664 40.872L141.76 42.552C141.456 42.712 141.078 42.8533 140.624 42.976C140.171 43.0987 139.659 43.16 139.088 43.16ZM136.864 38.088H140.096C140.096 37.848 140.051 37.608 139.96 37.368C139.87 37.1227 139.718 36.9173 139.504 36.752C139.296 36.5867 139.014 36.504 138.656 36.504C138.144 36.504 137.742 36.6533 137.448 36.952C137.155 37.2507 136.96 37.6293 136.864 38.088ZM146.459 47.032C145.712 47.032 145.059 46.9387 144.499 46.752C143.944 46.5707 143.512 46.3093 143.203 45.968C142.899 45.6267 142.747 45.2187 142.747 44.744C142.747 44.344 142.856 43.9867 143.075 43.672C143.299 43.3627 143.621 43.0907 144.043 42.856C143.829 42.728 143.659 42.568 143.531 42.376C143.403 42.184 143.339 41.9653 143.339 41.72C143.339 41.464 143.411 41.2427 143.555 41.056C143.704 40.864 143.899 40.712 144.139 40.6C143.733 40.312 143.427 39.944 143.219 39.496C143.011 39.0427 142.907 38.552 142.907 38.024C142.907 37.448 143.032 36.92 143.283 36.44C143.533 35.9547 143.899 35.568 144.379 35.28C144.864 34.9867 145.456 34.84 146.155 34.84C146.517 34.84 146.851 34.8853 147.155 34.976C147.464 35.0667 147.739 35.192 147.979 35.352C148.139 35.2613 148.371 35.1813 148.675 35.112C148.979 35.0373 149.317 35 149.691 35C149.781 35 149.867 35 149.947 35C150.032 35 150.117 35 150.203 35L150.075 36.248C149.957 36.248 149.837 36.248 149.715 36.248C149.597 36.248 149.477 36.248 149.355 36.248C149.307 36.248 149.243 36.248 149.163 36.248C149.083 36.248 148.997 36.2533 148.907 36.264C149.067 36.5093 149.187 36.784 149.267 37.088C149.347 37.392 149.387 37.704 149.387 38.024C149.387 38.6 149.261 39.1307 149.011 39.616C148.765 40.096 148.403 40.4827 147.923 40.776C147.443 41.064 146.853 41.208 146.155 41.208C146.005 41.208 145.861 41.1973 145.723 41.176C145.584 41.1547 145.445 41.128 145.307 41.096C145.189 41.144 145.131 41.2293 145.131 41.352C145.131 41.496 145.219 41.6053 145.395 41.68C145.571 41.7547 145.845 41.8213 146.219 41.88L147.595 42.056C148.453 42.168 149.125 42.4107 149.611 42.784C150.101 43.1573 150.347 43.688 150.347 44.376C150.347 44.9093 150.192 45.3733 149.883 45.768C149.579 46.168 149.136 46.4773 148.555 46.696C147.973 46.92 147.275 47.032 146.459 47.032ZM146.539 45.528C147.211 45.528 147.72 45.4453 148.067 45.28C148.413 45.1147 148.587 44.8613 148.587 44.52C148.587 44.216 148.464 43.992 148.219 43.848C147.979 43.704 147.595 43.592 147.067 43.512L145.315 43.256C145.053 43.3573 144.835 43.496 144.659 43.672C144.483 43.8533 144.395 44.088 144.395 44.376C144.395 44.7653 144.584 45.0533 144.963 45.24C145.341 45.432 145.867 45.528 146.539 45.528ZM146.155 39.736C146.629 39.736 146.987 39.5813 147.227 39.272C147.472 38.9573 147.595 38.5413 147.595 38.024C147.595 37.5013 147.472 37.0853 147.227 36.776C146.987 36.4667 146.629 36.312 146.155 36.312C145.675 36.312 145.312 36.4667 145.067 36.776C144.821 37.0853 144.699 37.5013 144.699 38.024C144.699 38.5413 144.821 38.9573 145.067 39.272C145.312 39.5813 145.675 39.736 146.155 39.736ZM154.7 43.16C153.83 43.16 153.089 42.9707 152.476 42.592C151.862 42.2133 151.393 41.7093 151.068 41.08C150.748 40.4507 150.588 39.7627 150.588 39.016C150.588 38.264 150.748 37.5707 151.068 36.936C151.393 36.3013 151.862 35.7947 152.476 35.416C153.089 35.032 153.83 34.84 154.7 34.84C155.569 34.84 156.31 35.032 156.924 35.416C157.537 35.7947 158.004 36.3013 158.324 36.936C158.649 37.5707 158.812 38.264 158.812 39.016C158.812 39.7627 158.649 40.4507 158.324 41.08C158.004 41.7093 157.537 42.2133 156.924 42.592C156.31 42.9707 155.569 43.16 154.7 43.16ZM154.7 41.528C155.366 41.528 155.878 41.296 156.236 40.832C156.598 40.3627 156.78 39.7573 156.78 39.016C156.78 38.264 156.598 37.6533 156.236 37.184C155.878 36.7093 155.366 36.472 154.7 36.472C154.038 36.472 153.526 36.7093 153.164 37.184C152.801 37.6533 152.62 38.264 152.62 39.016C152.62 39.7573 152.801 40.3627 153.164 40.832C153.526 41.296 154.038 41.528 154.7 41.528ZM160.017 43V35H161.873L161.921 35.848C162.123 35.624 162.409 35.4 162.777 35.176C163.145 34.952 163.547 34.84 163.985 34.84C164.113 34.84 164.23 34.8507 164.337 34.872L164.193 36.824C164.075 36.792 163.958 36.7707 163.841 36.76C163.729 36.7493 163.617 36.744 163.505 36.744C163.169 36.744 162.862 36.8213 162.585 36.976C162.307 37.1307 162.113 37.32 162.001 37.544V43H160.017ZM165.762 46.872L167.538 42.472L164.21 35H166.418L168.466 40.152L170.546 35H172.754L167.746 46.872H165.762ZM177.261 43V31.8H179.309V36.232H184.429V31.8H186.477V43H184.429V38.152H179.309V43H177.261ZM188.277 43V40.824H190.357V43H188.277Z" fill="#1E1E1E"/>
<path d="M200.9 41.5V30.7H203.09V41.5H200.9ZM206.969 41.5L203.849 33.85H206.354L208.109 38.71L209.879 33.85H212.324L209.219 41.5H206.969ZM213.094 41.5V30.7H215.284V41.5H213.094ZM217.979 41.65C217.124 41.65 216.479 41.005 216.479 40.15C216.479 39.31 217.124 38.665 217.979 38.665C218.849 38.665 219.494 39.31 219.494 40.15C219.494 41.005 218.849 41.65 217.979 41.65ZM227.63 41.68C225.23 41.68 223.55 39.49 223.55 36.325C223.55 33.16 225.23 30.97 227.63 30.97C230.045 30.97 231.725 33.16 231.725 36.325C231.725 39.49 230.045 41.68 227.63 41.68ZM227.63 39.445C228.65 39.445 229.34 38.155 229.34 36.325C229.34 34.495 228.65 33.205 227.63 33.205C226.64 33.205 225.935 34.495 225.935 36.325C225.935 38.155 226.64 39.445 227.63 39.445ZM228.503 41.5V33.82L226.523 34.915V32.605L229.178 31.15H230.828V41.5H228.503Z" fill="#949494"/>
<path d="M125.03 72.18C121.94 72.18 119.585 69.87 119.585 66.825C119.585 63.78 121.94 61.47 125.03 61.47C127.625 61.47 129.695 63.105 130.205 65.4H128.315C127.85 64.08 126.575 63.195 125.03 63.195C122.99 63.195 121.43 64.755 121.43 66.825C121.43 68.895 122.99 70.455 125.03 70.455C126.575 70.455 127.85 69.57 128.315 68.25H130.205C129.695 70.545 127.625 72.18 125.03 72.18ZM135.247 72.18C132.907 72.18 131.152 70.455 131.152 68.175C131.152 65.895 132.907 64.17 135.247 64.17C137.572 64.17 139.342 65.895 139.342 68.175C139.342 70.455 137.572 72.18 135.247 72.18ZM135.247 70.56C136.597 70.56 137.602 69.525 137.602 68.175C137.602 66.825 136.597 65.79 135.247 65.79C133.897 65.79 132.877 66.825 132.877 68.175C132.877 69.525 133.897 70.56 135.247 70.56ZM140.695 72V64.35H142.375V65.235C142.945 64.545 143.755 64.17 144.745 64.17C145.9 64.17 146.785 64.695 147.235 65.565C147.82 64.665 148.75 64.17 149.935 64.17C151.63 64.17 152.755 65.31 152.755 67.035V72H151.075V67.53C151.075 66.48 150.415 65.79 149.38 65.79C148.3 65.79 147.565 66.495 147.565 67.56V72H145.885V67.53C145.885 66.48 145.225 65.79 144.19 65.79C143.11 65.79 142.375 66.495 142.375 67.56V72H140.695ZM154.461 74.85V64.35H156.141V65.445C156.786 64.65 157.716 64.17 158.841 64.17C160.986 64.17 162.606 65.895 162.606 68.175C162.606 70.455 160.986 72.18 158.841 72.18C157.716 72.18 156.786 71.7 156.141 70.905V74.85H154.461ZM158.511 70.56C159.861 70.56 160.866 69.525 160.866 68.175C160.866 66.825 159.861 65.79 158.511 65.79C157.161 65.79 156.141 66.825 156.141 68.175C156.141 69.525 157.161 70.56 158.511 70.56ZM167.323 72.18C165.163 72.18 163.558 70.455 163.558 68.175C163.558 65.895 165.163 64.17 167.323 64.17C168.448 64.17 169.378 64.65 170.008 65.445V64.35H171.688V72H170.008V70.905C169.378 71.7 168.448 72.18 167.323 72.18ZM167.653 70.56C169.003 70.56 170.008 69.525 170.008 68.175C170.008 66.825 169.003 65.79 167.653 65.79C166.288 65.79 165.283 66.825 165.283 68.175C165.283 69.525 166.288 70.56 167.653 70.56ZM173.525 72V64.35H175.205V65.325C175.82 64.575 176.705 64.17 177.785 64.17C179.6 64.17 180.815 65.37 180.815 67.185V72H179.135V67.74C179.135 66.57 178.385 65.79 177.23 65.79C176.015 65.79 175.205 66.585 175.205 67.77V72H173.525ZM183.444 63.12C182.844 63.12 182.379 62.655 182.379 62.055C182.379 61.44 182.844 60.99 183.444 60.99C184.059 60.99 184.524 61.44 184.524 62.055C184.524 62.655 184.059 63.12 183.444 63.12ZM182.604 72V64.35H184.284V72H182.604ZM189.775 72.18C187.435 72.18 185.68 70.455 185.68 68.175C185.68 65.895 187.435 64.17 189.775 64.17C192.1 64.17 193.87 65.895 193.87 68.175C193.87 70.455 192.1 72.18 189.775 72.18ZM189.775 70.56C191.125 70.56 192.13 69.525 192.13 68.175C192.13 66.825 191.125 65.79 189.775 65.79C188.425 65.79 187.405 66.825 187.405 68.175C187.405 69.525 188.425 70.56 189.775 70.56ZM195.223 72V64.35H196.903V65.325C197.518 64.575 198.403 64.17 199.483 64.17C201.298 64.17 202.513 65.37 202.513 67.185V72H200.833V67.74C200.833 66.57 200.083 65.79 198.928 65.79C197.713 65.79 196.903 66.585 196.903 67.77V72H195.223ZM205.128 66.525C204.468 66.525 203.973 66.015 203.973 65.37C203.973 64.725 204.468 64.23 205.128 64.23C205.788 64.23 206.283 64.725 206.283 65.37C206.283 66.015 205.788 66.525 205.128 66.525ZM205.128 72.12C204.468 72.12 203.973 71.625 203.973 70.98C203.973 70.335 204.468 69.825 205.128 69.825C205.788 69.825 206.283 70.335 206.283 70.98C206.283 71.625 205.788 72.12 205.128 72.12ZM211.357 72V63.33H210.637V61.65H214.577V63.33H213.127V72H211.357ZM217.406 72.18C215.036 72.18 213.281 70.455 213.281 68.175C213.281 65.895 215.036 64.17 217.361 64.17C219.701 64.17 221.456 65.895 221.456 68.19C221.456 68.4 221.441 68.625 221.411 68.82H215.081C215.336 69.93 216.236 70.665 217.436 70.665C218.321 70.665 219.086 70.275 219.476 69.69H221.336C220.721 71.175 219.221 72.18 217.406 72.18ZM217.361 65.685C216.251 65.685 215.366 66.375 215.096 67.44H219.656C219.401 66.39 218.501 65.685 217.361 65.685ZM227.901 72.18C225.531 72.18 223.776 70.455 223.776 68.175C223.776 65.895 225.531 64.17 227.856 64.17C230.196 64.17 231.951 65.895 231.951 68.19C231.951 68.4 231.936 68.625 231.906 68.82H225.576C225.831 69.93 226.731 70.665 227.931 70.665C228.816 70.665 229.581 70.275 229.971 69.69H231.831C231.216 71.175 229.716 72.18 227.901 72.18ZM227.856 65.685C226.746 65.685 225.861 66.375 225.591 67.44H230.151C229.896 66.39 228.996 65.685 227.856 65.685ZM233.749 72V61.65H235.534V72H233.749ZM237.88 72V61.65H239.665V72H237.88Z" fill="#2A2A2A"/>
<circle cx="45.5" cy="50.5" r="33.5" fill="#D3716E"/>
<ellipse cx="28.3234" cy="50.1374" rx="6.32343" ry="6.13744" fill="#2A2A2A"/>
<ellipse cx="28.3232" cy="50.1374" rx="3.71966" ry="3.53368" fill="#FFF7E7"/>
<ellipse cx="62.5441" cy="50.1374" rx="6.32343" ry="6.13744" fill="#2A2A2A"/>
<ellipse cx="62.5444" cy="50.1374" rx="3.71966" ry="3.53368" fill="#FFF7E7"/>
<path d="M43.6807 47.2921C43.668 47.19 43.6168 46.9337 43.5013 46.4845C43.4172 46.1571 43.1681 45.8037 42.9172 45.5905C42.7018 45.4075 42.3981 45.2248 41.9868 45.1404C41.3178 45.003 38.1686 45.3686 37.1779 48.1584C36.1872 50.9481 37.8584 52.4364 39.2237 52.9939C41.1119 53.7649 44.4479 51.8339 47.6097 51.8339C50.7714 51.8339 53.1891 53.1087 54.1191 53.3218" stroke="#2A2A2A" stroke-width="3" stroke-linecap="round"/>
<path d="M45.1753 54.668C45.3287 54.6807 45.6363 54.732 46.0986 54.7514C46.2024 54.7578 46.266 54.7705 46.6422 54.777C47.0184 54.7836 47.7052 54.7836 48.4128 54.7836" stroke="#2A2A2A" stroke-width="2" stroke-linecap="round"/>
</svg>

