<svg width="347" height="101" viewBox="0 0 347 101" fill="none" xmlns="http://www.w3.org/2000/svg">
<path d="M0 20C0 8.95431 8.95431 0 20 0H307C329.091 0 347 17.9086 347 40V61C347 83.0914 329.091 101 307 101H20C8.95432 101 0 92.0457 0 81V20Z" fill="#FFE9B8"/>
<circle cx="315" cy="51" r="20" fill="#FFB411"/>
<path d="M323.75 49.75H316.25V42.25C316.25 41.9185 316.118 41.6005 315.884 41.3661C315.649 41.1317 315.332 41 315 41C314.668 41 314.351 41.1317 314.116 41.3661C313.882 41.6005 313.75 41.9185 313.75 42.25V49.75H306.25C305.918 49.75 305.601 49.8817 305.366 50.1161C305.132 50.3505 305 50.6685 305 51C305 51.3315 305.132 51.6495 305.366 51.8839C305.601 52.1183 305.918 52.25 306.25 52.25H313.75V59.75C313.75 60.0815 313.882 60.3995 314.116 60.6339C314.351 60.8683 314.668 61 315 61C315.332 61 315.649 60.8683 315.884 60.6339C316.118 60.3995 316.25 60.0815 316.25 59.75V52.25H323.75C324.082 52.25 324.399 52.1183 324.634 51.8839C324.868 51.6495 325 51.3315 325 51C325 50.6685 324.868 50.3505 324.634 50.1161C324.399 49.8817 324.082 49.75 323.75 49.75Z" fill="#2A2A2A"/>
<path d="M125.03 72.18C121.94 72.18 119.585 69.87 119.585 66.825C119.585 63.78 121.94 61.47 125.03 61.47C127.625 61.47 129.695 63.105 130.205 65.4H128.315C127.85 64.08 126.575 63.195 125.03 63.195C122.99 63.195 121.43 64.755 121.43 66.825C121.43 68.895 122.99 70.455 125.03 70.455C126.575 70.455 127.85 69.57 128.315 68.25H130.205C129.695 70.545 127.625 72.18 125.03 72.18ZM135.247 72.18C132.907 72.18 131.152 70.455 131.152 68.175C131.152 65.895 132.907 64.17 135.247 64.17C137.572 64.17 139.342 65.895 139.342 68.175C139.342 70.455 137.572 72.18 135.247 72.18ZM135.247 70.56C136.597 70.56 137.602 69.525 137.602 68.175C137.602 66.825 136.597 65.79 135.247 65.79C133.897 65.79 132.877 66.825 132.877 68.175C132.877 69.525 133.897 70.56 135.247 70.56ZM140.695 72V64.35H142.375V65.235C142.945 64.545 143.755 64.17 144.745 64.17C145.9 64.17 146.785 64.695 147.235 65.565C147.82 64.665 148.75 64.17 149.935 64.17C151.63 64.17 152.755 65.31 152.755 67.035V72H151.075V67.53C151.075 66.48 150.415 65.79 149.38 65.79C148.3 65.79 147.565 66.495 147.565 67.56V72H145.885V67.53C145.885 66.48 145.225 65.79 144.19 65.79C143.11 65.79 142.375 66.495 142.375 67.56V72H140.695ZM154.461 74.85V64.35H156.141V65.445C156.786 64.65 157.716 64.17 158.841 64.17C160.986 64.17 162.606 65.895 162.606 68.175C162.606 70.455 160.986 72.18 158.841 72.18C157.716 72.18 156.786 71.7 156.141 70.905V74.85H154.461ZM158.511 70.56C159.861 70.56 160.866 69.525 160.866 68.175C160.866 66.825 159.861 65.79 158.511 65.79C157.161 65.79 156.141 66.825 156.141 68.175C156.141 69.525 157.161 70.56 158.511 70.56ZM167.323 72.18C165.163 72.18 163.558 70.455 163.558 68.175C163.558 65.895 165.163 64.17 167.323 64.17C168.448 64.17 169.378 64.65 170.008 65.445V64.35H171.688V72H170.008V70.905C169.378 71.7 168.448 72.18 167.323 72.18ZM167.653 70.56C169.003 70.56 170.008 69.525 170.008 68.175C170.008 66.825 169.003 65.79 167.653 65.79C166.288 65.79 165.283 66.825 165.283 68.175C165.283 69.525 166.288 70.56 167.653 70.56ZM173.525 72V64.35H175.205V65.325C175.82 64.575 176.705 64.17 177.785 64.17C179.6 64.17 180.815 65.37 180.815 67.185V72H179.135V67.74C179.135 66.57 178.385 65.79 177.23 65.79C176.015 65.79 175.205 66.585 175.205 67.77V72H173.525ZM183.444 63.12C182.844 63.12 182.379 62.655 182.379 62.055C182.379 61.44 182.844 60.99 183.444 60.99C184.059 60.99 184.524 61.44 184.524 62.055C184.524 62.655 184.059 63.12 183.444 63.12ZM182.604 72V64.35H184.284V72H182.604ZM189.775 72.18C187.435 72.18 185.68 70.455 185.68 68.175C185.68 65.895 187.435 64.17 189.775 64.17C192.1 64.17 193.87 65.895 193.87 68.175C193.87 70.455 192.1 72.18 189.775 72.18ZM189.775 70.56C191.125 70.56 192.13 69.525 192.13 68.175C192.13 66.825 191.125 65.79 189.775 65.79C188.425 65.79 187.405 66.825 187.405 68.175C187.405 69.525 188.425 70.56 189.775 70.56ZM195.223 72V64.35H196.903V65.325C197.518 64.575 198.403 64.17 199.483 64.17C201.298 64.17 202.513 65.37 202.513 67.185V72H200.833V67.74C200.833 66.57 200.083 65.79 198.928 65.79C197.713 65.79 196.903 66.585 196.903 67.77V72H195.223ZM205.128 66.525C204.468 66.525 203.973 66.015 203.973 65.37C203.973 64.725 204.468 64.23 205.128 64.23C205.788 64.23 206.283 64.725 206.283 65.37C206.283 66.015 205.788 66.525 205.128 66.525ZM205.128 72.12C204.468 72.12 203.973 71.625 203.973 70.98C203.973 70.335 204.468 69.825 205.128 69.825C205.788 69.825 206.283 70.335 206.283 70.98C206.283 71.625 205.788 72.12 205.128 72.12ZM211.357 72V61.65H213.142V66.57L217.432 61.65H219.637L215.482 66.435L219.802 72H217.567L214.297 67.755L213.142 69V72H211.357ZM223.381 72.18C221.221 72.18 219.616 70.455 219.616 68.175C219.616 65.895 221.221 64.17 223.381 64.17C224.506 64.17 225.436 64.65 226.066 65.445V64.35H227.746V72H226.066V70.905C225.436 71.7 224.506 72.18 223.381 72.18ZM223.711 70.56C225.061 70.56 226.066 69.525 226.066 68.175C226.066 66.825 225.061 65.79 223.711 65.79C222.346 65.79 221.341 66.825 221.341 68.175C221.341 69.525 222.346 70.56 223.711 70.56ZM232.913 72.18C230.753 72.18 229.148 70.455 229.148 68.175C229.148 65.895 230.753 64.17 232.913 64.17C234.038 64.17 234.968 64.65 235.598 65.445V61.2H237.278V72H235.598V70.905C234.968 71.7 234.038 72.18 232.913 72.18ZM233.243 70.56C234.593 70.56 235.598 69.525 235.598 68.175C235.598 66.825 234.593 65.79 233.243 65.79C231.878 65.79 230.873 66.825 230.873 68.175C230.873 69.525 231.878 70.56 233.243 70.56ZM242.746 72.18C240.406 72.18 238.651 70.455 238.651 68.175C238.651 65.895 240.406 64.17 242.746 64.17C245.071 64.17 246.841 65.895 246.841 68.175C246.841 70.455 245.071 72.18 242.746 72.18ZM242.746 70.56C244.096 70.56 245.101 69.525 245.101 68.175C245.101 66.825 244.096 65.79 242.746 65.79C241.396 65.79 240.376 66.825 240.376 68.175C240.376 69.525 241.396 70.56 242.746 70.56Z" fill="#2A2A2A"/>
<circle cx="45.5" cy="50.5" r="33.5" fill="#C4210C"/>
<ellipse cx="29.0842" cy="52.0359" rx="6.4509" ry="6.31925" fill="#2A2A2A"/>
<ellipse cx="6.4509" cy="6.31925" rx="6.4509" ry="6.31925" transform="matrix(-1 0 0 1 69.501 45.7167)" fill="#2A2A2A"/>
<ellipse cx="29.8743" cy="49.7976" rx="4.08118" ry="3.02798" transform="rotate(18.5143 29.8743 49.7976)" fill="#FFF7E7"/>
<ellipse cx="4.08118" cy="3.02798" rx="4.08118" ry="3.02798" transform="matrix(-0.948245 0.317541 0.317541 0.948245 65.1689 45.6304)" fill="#FFF7E7"/>
<path d="M31.2738 55.2002C30.8429 56.487 29.0876 57.0593 27.3533 56.4786C25.6189 55.8978 24.5623 54.3838 24.9932 53.097C25.4241 51.8103 26.3245 53.7117 28.0588 54.2925C29.7932 54.8733 31.7047 53.9135 31.2738 55.2002Z" fill="#FFF7E7"/>
<path d="M60.8609 55.2002C61.2918 56.487 63.0471 57.0593 64.7815 56.4786C66.5158 55.8978 67.5725 54.3838 67.1416 53.097C66.7107 51.8103 65.8103 53.7117 64.0759 54.2925C62.3416 54.8733 60.43 53.9135 60.8609 55.2002Z" fill="#FFF7E7"/>
<rect x="28.0054" y="39.0476" width="7.63576" height="4.21283" rx="2.10642" transform="rotate(12.2823 28.0054 39.0476)" fill="#2A2A2A"/>
<rect width="7.63576" height="4.21283" rx="2.10642" transform="matrix(-0.977111 0.212729 0.212729 0.977111 64.1289 39.0476)" fill="#2A2A2A"/>
<path d="M40.8008 56.3599C40.8008 56.3599 45.6174 51.9223 45.9738 51.9223C46.3301 51.9223 51.2012 56.3599 51.2012 56.3599" stroke="#2A2A2A" stroke-width="5" stroke-linecap="round"/>
</svg>

