<svg width="131" height="132" viewBox="0 0 131 132" fill="none" xmlns="http://www.w3.org/2000/svg">
<path d="M65.5 132C29.3253 132 -4.47827e-06 102.451 -2.88495e-06 66C-1.29164e-06 29.5492 29.3253 -4.44434e-06 65.5 -2.8631e-06C101.675 -1.28185e-06 131 29.5492 131 66C131 102.451 101.675 132 65.5 132ZM65.5 7.73068C33.5625 7.73067 7.67211 33.8187 7.67211 66C7.67211 98.1813 33.5625 124.269 65.5 124.269C97.4375 124.269 123.328 98.1813 123.328 66C123.328 33.8187 97.4375 7.73068 65.5 7.73068Z" fill="#FFE9B8"/>
</svg>
