<svg width="182" height="75" viewBox="0 0 182 75" fill="none" xmlns="http://www.w3.org/2000/svg">
<ellipse cx="24.4149" cy="42.7254" rx="18.8658" ry="18.3109" fill="#1E1E1E"/>
<path d="M48.8292 41.0605C48.8292 41.0605 44.5207 21.0849 24.4146 21.0849C4.30846 21.0849 0 41.0605 0 41.0605C0 27.5767 10.9308 16.6459 24.4146 16.6459C37.8984 16.6459 48.8292 27.5767 48.8292 41.0605Z" fill="#1E1E1E"/>
<ellipse cx="157.586" cy="42.7254" rx="18.8658" ry="18.3109" fill="#1E1E1E"/>
<path d="M182 41.0605C182 41.0605 177.692 21.0849 157.586 21.0849C137.48 21.0849 133.171 41.0605 133.171 41.0605C133.171 27.5767 144.102 16.6459 157.586 16.6459C171.07 16.6459 182 27.5767 182 41.0605Z" fill="#1E1E1E"/>
<rect x="17.094" width="32.1829" height="17.7561" rx="8" transform="rotate(12.2823 17.094 0)" fill="#1E1E1E"/>
<rect width="32.1829" height="17.7561" rx="8" transform="matrix(-0.977111 0.212729 0.212729 0.977111 164.617 0)" fill="#1E1E1E"/>
<path d="M98.2996 41.0603C98.9899 41.0603 99.8775 41.5042 99.8775 42.392C99.8775 43.2798 99.1408 43.7237 98.525 43.7237C93.0474 43.7237 88.6069 44.5448 88.6069 49.9383C88.6069 57.2627 98.525 54.5993 98.525 57.9286C98.525 61.2578 88.6069 58.8164 88.6069 65.9188C88.6069 71.3123 93.0474 71.6895 98.525 71.6895C99.1409 71.6895 99.8521 72.1194 99.8775 73.0212C99.9028 73.923 98.9899 74.3529 98.2996 74.3529C91.2036 74.3529 85.4512 72.6839 85.4512 65.6968C85.4512 62.7684 87.029 57.9286 91.7627 57.9286C87.029 57.9286 85.4512 53.0887 85.4512 50.1603C85.4512 43.1732 91.2036 41.0603 98.2996 41.0603Z" fill="#1E1E1E"/>
</svg>
