<svg width="182" height="58" viewBox="0 0 182 58" fill="none" xmlns="http://www.w3.org/2000/svg">
<ellipse cx="28.9545" cy="28.7496" rx="28.9545" ry="28.3636" fill="#1E1E1E"/>
<ellipse cx="32.4993" cy="18.7043" rx="18.3182" ry="13.5909" transform="rotate(18.5143 32.4993 18.7043)" fill="white"/>
<path d="M38.7828 42.9552C36.8487 48.7308 28.9702 51.2996 21.1857 48.6928C13.4012 46.086 8.65846 39.2906 10.5926 33.515C12.5266 27.7394 16.568 36.2739 24.3526 38.8807C32.1371 41.4876 40.7169 37.1795 38.7828 42.9552Z" fill="white"/>
<ellipse cx="153.045" cy="28.7496" rx="28.9545" ry="28.3636" fill="#1E1E1E"/>
<ellipse cx="156.591" cy="18.7043" rx="18.3182" ry="13.5909" transform="rotate(18.5143 156.591 18.7043)" fill="white"/>
<path d="M162.874 42.9552C160.94 48.7308 153.061 51.2996 145.277 48.6928C137.492 46.086 132.749 39.2906 134.683 33.515C136.617 27.7394 140.659 36.2739 148.443 38.8807C156.228 41.4876 164.808 37.1795 162.874 42.9552Z" fill="white"/>
<ellipse cx="91.5905" cy="30.1365" rx="11.2273" ry="10.0454" fill="#1E1E1E"/>
<path d="M88.6365 42.5455C89.1092 42.9905 90.1728 43.7273 92.4183 43.7273C94.6637 43.7273 95.3183 42.9507 95.7274 42.5455" stroke="black" stroke-linecap="round"/>
</svg>
