<svg width="182" height="88" viewBox="0 0 182 88" fill="none" xmlns="http://www.w3.org/2000/svg">
<ellipse cx="25.0506" cy="50.4353" rx="25.0506" ry="24.5393" fill="#1E1E1E"/>
<ellipse cx="25.0506" cy="24.5393" rx="25.0506" ry="24.5393" transform="matrix(-1 0 0 1 182 25.896)" fill="#1E1E1E"/>
<ellipse cx="28.1173" cy="41.7445" rx="15.8483" ry="11.7584" transform="rotate(18.5143 28.1173 41.7445)" fill="white"/>
<ellipse cx="15.8483" cy="11.7584" rx="15.8483" ry="11.7584" transform="matrix(-0.948245 0.317541 0.317541 0.948245 165.176 25.5621)" fill="white"/>
<path d="M33.5537 62.7251C31.8804 67.722 25.0642 69.9444 18.3292 67.6891C11.5943 65.4337 7.49104 59.5546 9.16436 54.5578C10.8377 49.5609 14.3342 56.9447 21.0691 59.2C27.804 61.4553 35.227 57.7282 33.5537 62.7251Z" fill="white"/>
<path d="M148.446 62.7251C150.119 67.722 156.935 69.9444 163.67 67.6891C170.405 65.4337 174.508 59.5546 172.835 54.5578C171.162 49.5609 167.665 56.9447 160.93 59.2C154.195 61.4553 146.772 57.7282 148.446 62.7251Z" fill="white"/>
<rect x="20.8618" width="29.6517" height="16.3595" rx="8" transform="rotate(12.2823 20.8618 0)" fill="#1E1E1E"/>
<rect width="29.6517" height="16.3595" rx="8" transform="matrix(-0.977111 0.212729 0.212729 0.977111 161.138 0)" fill="#1E1E1E"/>
<path d="M70.5508 67.2278C70.5508 67.2278 89.2549 49.9955 90.6388 49.9956C92.0227 49.9957 110.938 67.2278 110.938 67.2278" stroke="black" stroke-width="5" stroke-linecap="round"/>
</svg>
