<svg width="182" height="62" viewBox="0 0 182 62" fill="none" xmlns="http://www.w3.org/2000/svg">
<ellipse cx="18.3077" cy="17.7693" rx="18.3077" ry="17.7693" fill="#1E1E1E"/>
<ellipse cx="163.692" cy="20.9997" rx="18.3077" ry="17.7693" fill="#1E1E1E"/>
<path d="M116.308 24.512C116.308 29.3383 113.922 32.9806 111.973 34.4711C110.025 35.9616 105.232 39.6994 102.685 40.6363C99.3344 41.8687 95.5477 42.5628 91.5385 42.5628C77.8589 42.5628 66.7693 34.4812 66.7693 24.512C66.7693 14.5428 77.8589 6.46118 91.5385 6.46118C105.218 6.46118 116.308 14.5428 116.308 24.512Z" fill="#1F1F1F"/>
<path d="M102.685 40.6363C102.685 40.6363 98.5386 61.3843 108.231 61.3843C117.923 61.3843 111.973 34.4711 111.973 34.4711C110.025 35.9616 105.232 39.6994 102.685 40.6363Z" fill="#1F1F1F"/>
</svg>
