<svg width="182" height="49" viewBox="0 0 182 49" fill="none" xmlns="http://www.w3.org/2000/svg">
<ellipse cx="26.8725" cy="28.7049" rx="20.7651" ry="20.1544" fill="#1E1E1E"/>
<path d="M53.745 26.8725C53.745 26.8725 49.0028 4.88591 26.8725 4.88591C4.74221 4.88591 0 26.8725 0 26.8725C0 12.0312 12.0312 0 26.8725 0C41.7138 0 53.745 12.0312 53.745 26.8725Z" fill="#1E1E1E"/>
<ellipse cx="155.128" cy="28.7049" rx="20.7651" ry="20.1544" fill="#1E1E1E"/>
<path d="M182 26.8725C182 26.8725 177.258 4.88591 155.128 4.88591C132.998 4.88591 128.255 26.8725 128.255 26.8725C128.255 12.0312 140.287 0 155.128 0C169.969 0 182 12.0312 182 26.8725Z" fill="#1E1E1E"/>
<ellipse cx="90.9998" cy="31.1476" rx="11.604" ry="10.3826" fill="#1E1E1E"/>
<path d="M87.9465 43.9731C88.4351 44.433 89.5345 45.1946 91.8553 45.1946C94.1761 45.1946 94.8526 44.3919 95.2754 43.9731" stroke="black" stroke-linecap="round"/>
</svg>
