<svg width="182" height="91" viewBox="0 0 182 91" fill="none" xmlns="http://www.w3.org/2000/svg">
<rect width="33.7552" height="18.6236" rx="8" transform="matrix(0.977111 -0.212729 -0.212729 -0.977111 133.163 25.378)" fill="#1E1E1E"/>
<rect x="15.6016" width="33.7552" height="18.6236" rx="8" transform="rotate(12.2823 15.6016 0)" fill="#1E1E1E"/>
<path d="M180.83 47.9578C181.439 43.006 177.418 38.6925 172.43 38.7962C166.046 38.9288 157.757 38.9019 151.762 38.1646C146.246 37.4861 139.613 35.8294 134.319 34.3287C129.433 32.9435 124.324 36.1651 123.704 41.2062L123.426 43.4645C122.964 47.2213 125.196 50.784 128.821 51.8719C134.416 53.5505 142.778 55.8234 149.489 56.6489C156.44 57.5039 166.479 57.4036 173.052 57.2069C176.918 57.0912 180.07 54.1426 180.542 50.3033L180.83 47.9578Z" fill="#1E1E1E"/>
<path d="M1.16949 46.7937C0.560399 41.8418 4.58148 37.5284 9.56955 37.6321C15.9535 37.7647 24.2432 37.7378 30.2373 37.0005C35.7537 36.3219 42.3866 34.6652 47.6803 33.1646C52.5668 31.7793 57.6756 35.001 58.2956 40.0421L58.5734 42.3003C59.0355 46.0572 56.804 49.6198 53.1785 50.7077C47.5842 52.3864 39.2215 54.6593 32.5109 55.4847C25.5597 56.3397 15.521 56.2395 8.94776 56.0428C5.08126 55.9271 1.93024 52.9784 1.45799 49.1391L1.16949 46.7937Z" fill="#1E1E1E"/>
<path d="M67.5105 67.2195C67.5105 67.2195 88.803 47.6024 90.3784 47.6025C91.9539 47.6026 113.487 67.2195 113.487 67.2195" stroke="black" stroke-width="5" stroke-linecap="round"/>
</svg>
