<svg width="182" height="71" viewBox="0 0 182 71" fill="none" xmlns="http://www.w3.org/2000/svg">
<path d="M3.07619 24.9737C1.50507 20.0601 4.92337 14.94 10.037 14.2592C15.3477 13.5521 21.6954 12.4884 26.2618 11.0284C30.3592 9.71823 35.0303 7.44687 38.991 5.30467C43.6301 2.79556 49.5993 4.95019 51.2056 9.97382L52.6105 14.3677C53.7095 17.8046 52.3727 21.551 49.2512 23.3609C44.7885 25.9484 38.2332 29.454 32.7172 31.2177C27.0116 33.0421 18.5247 34.2476 12.7546 34.9118C9.06644 35.3363 5.65638 33.0432 4.52571 29.5071L3.07619 24.9737Z" fill="#1E1E1E"/>
<path d="M178.924 24.9737C180.495 20.0601 177.077 14.94 171.963 14.2592C166.653 13.5521 160.305 12.4884 155.738 11.0284C151.641 9.71823 146.97 7.44687 143.009 5.30467C138.37 2.79556 132.401 4.95019 130.795 9.97382L129.39 14.3677C128.291 17.8046 129.628 21.551 132.749 23.3609C137.212 25.9484 143.767 29.454 149.283 31.2177C154.989 33.0421 163.476 34.2476 169.246 34.9118C172.934 35.3363 176.344 33.0432 177.475 29.5071L178.924 24.9737Z" fill="#1E1E1E"/>
<path d="M45.3807 11.6081C47.0865 14.6353 48.0302 18.2319 34.0278 24.4314C30.9056 26.1908 26.9917 25.163 25.2859 22.1358C23.5801 19.1086 24.7283 15.2283 27.8505 13.469C42.7312 7.63377 43.6749 8.58086 45.3807 11.6081Z" fill="white"/>
<path d="M136.619 11.6081C134.913 14.6353 133.97 18.2319 147.972 24.4314C151.094 26.1908 155.008 25.163 156.714 22.1358C158.42 19.1086 157.271 15.2283 154.149 13.469C139.269 7.63377 138.325 8.58086 136.619 11.6081Z" fill="white"/>
<path d="M19.5475 22.5715C21.2534 25.5987 25.227 27.0117 22.1047 28.771C18.9825 30.5304 15.0686 29.5026 13.3628 26.4754C11.657 23.4482 12.8052 19.5679 15.9274 17.8086C19.0497 16.0492 17.8417 19.5443 19.5475 22.5715Z" fill="white"/>
<path d="M162.452 22.5715C160.746 25.5987 156.773 27.0117 159.895 28.771C163.017 30.5304 166.931 29.5026 168.637 26.4754C170.343 23.4482 169.195 19.5679 166.072 17.8086C162.95 16.0492 164.158 19.5443 162.452 22.5715Z" fill="white"/>
<path d="M8.79712 45.8906C8.35287 44.6263 9.14099 43.2632 10.4574 43.0121C15.4336 42.0633 26.6929 39.7783 33.8722 37.2557C40.896 34.7877 49.8766 30.0326 54.0104 27.762C55.1967 27.1104 56.6929 27.6735 57.1416 28.9504C57.4784 29.909 57.1092 30.9675 56.2366 31.488C52.5891 33.6635 42.9274 39.2378 35.4258 41.8737C27.8506 44.5354 15.6597 46.5966 11.1443 47.3062C10.1203 47.4672 9.14077 46.8686 8.79712 45.8906Z" fill="#1E1E1E"/>
<path d="M173.203 45.8906C173.647 44.6263 172.859 43.2632 171.543 43.0121C166.567 42.0633 155.307 39.7783 148.128 37.2557C141.104 34.7877 132.124 30.0326 127.99 27.762C126.804 27.1104 125.307 27.6735 124.859 28.9504C124.522 29.909 124.891 30.9675 125.764 31.488C129.411 33.6635 139.073 39.2378 146.574 41.8737C154.15 44.5354 166.341 46.5966 170.856 47.3062C171.88 47.4672 172.859 46.8686 173.203 45.8906Z" fill="#1E1E1E"/>
<path d="M64.9138 44.7106C64.9138 44.7106 89.1478 22.3835 90.9408 22.3836C92.7339 22.3837 117.242 44.7106 117.242 44.7106" stroke="black" stroke-width="5" stroke-linecap="round"/>
</svg>
