<svg width="182" height="51" viewBox="0 0 182 51" fill="none" xmlns="http://www.w3.org/2000/svg">
<path d="M49.0351 9.21022C49.6204 13.9687 45.7533 18.1121 40.9596 18.0347C35.7904 17.9513 29.4593 18.0118 24.7892 18.5863C20.5379 19.1092 15.4963 20.3245 11.2611 21.4948C6.58186 22.7878 1.69981 19.7106 1.10715 14.8924C0.665468 11.3016 2.79868 7.89486 6.26804 6.869C10.9386 5.48797 17.535 3.73522 22.8816 3.07757C28.4333 2.39469 36.3324 2.43809 41.8364 2.58619C45.5523 2.68617 48.5813 5.52082 49.0351 9.21022Z" fill="#1E1E1E"/>
<path d="M132.965 9.21022C132.38 13.9687 136.247 18.1121 141.04 18.0347C146.21 17.9513 152.541 18.0118 157.211 18.5863C161.462 19.1092 166.504 20.3245 170.739 21.4948C175.418 22.7878 180.3 19.7106 180.893 14.8924C181.335 11.3016 179.201 7.89486 175.732 6.869C171.061 5.48797 164.465 3.73522 159.118 3.07757C153.567 2.39469 145.668 2.43809 140.164 2.58619C136.448 2.68617 133.419 5.52082 132.965 9.21022Z" fill="#1E1E1E"/>
<path d="M61.1478 23.9436C62.7066 20.9621 72.2179 27.8588 91.3156 27.8588C110.413 27.8588 121.65 22.408 122.465 23.9436C123.279 25.4791 121.476 26.8714 118.171 27.8588C117.64 28.0174 117.072 28.1682 116.472 28.3116C115.699 28.4961 114.873 28.6682 114.006 28.8282C112.913 29.0297 111.755 29.2122 110.553 29.3766C109.277 29.551 107.953 29.705 106.607 29.8397C105.953 29.9051 105.294 29.966 104.634 30.0224C99.9278 30.4244 95.1163 30.6025 91.3156 30.6025C79.4036 30.6025 59.5889 26.9251 61.1478 23.9436Z" fill="#1E1E1E"/>
<path d="M110.553 29.3766C111.302 32.838 113.337 39.5681 115.485 38.7968C117.634 38.0256 115.394 31.8298 114.006 28.8282C112.913 29.0297 111.755 29.2122 110.553 29.3766Z" fill="#1E1E1E"/>
<path d="M104.634 30.0224C102.661 38.8922 102.759 55.282 118.938 49.8833C135.117 44.4847 125.168 32.9509 118.171 27.8588C117.64 28.0174 117.072 28.1682 116.472 28.3116C131.467 40.7467 124.364 46.91 118.938 48.4373C104.634 52.2934 105.127 37.6456 106.607 29.8397C105.953 29.9051 105.294 29.966 104.634 30.0224Z" fill="#1E1E1E"/>
</svg>
