<svg width="182" height="48" viewBox="0 0 182 48" fill="none" xmlns="http://www.w3.org/2000/svg">
<ellipse cx="24.5555" cy="23.8333" rx="24.5555" ry="23.8333" fill="#1E1E1E"/>
<ellipse cx="24.5553" cy="23.8333" rx="14.4444" ry="13.7222" fill="white"/>
<ellipse cx="157.445" cy="23.8333" rx="24.5555" ry="23.8333" fill="#1E1E1E"/>
<ellipse cx="157.444" cy="23.8333" rx="14.4444" ry="13.7222" fill="white"/>
<path d="M84.1928 12.7844C84.1434 12.3878 83.9443 11.3925 83.4961 9.64812C83.1694 8.37688 82.2022 7.00423 81.2279 6.17657C80.3913 5.46594 79.2118 4.75622 77.6149 4.42845C75.0171 3.89524 62.7879 5.3147 58.9406 16.1481C55.0932 26.9816 61.583 32.7608 66.885 34.9259C74.2174 37.92 87.172 30.4212 99.4498 30.4212C111.728 30.4212 121.116 35.3716 124.728 36.199" stroke="black" stroke-width="3" stroke-linecap="round"/>
<path d="M89.9966 41.4259C90.5923 41.4753 91.7866 41.6744 93.5819 41.7499C93.9852 41.7746 94.2322 41.824 95.693 41.8495C97.1537 41.8749 99.8208 41.8749 102.569 41.8749" stroke="black" stroke-width="2" stroke-linecap="round"/>
</svg>
