<svg width="20" height="20" viewBox="0 0 20 20" fill="none" xmlns="http://www.w3.org/2000/svg">
<path d="M4.35607 2.72316C4.32227 3.28821 4.40514 3.85416 4.59952 4.38579C4.7939 4.91742 5.09563 5.40335 5.48592 5.81333C4.7274 6.03081 4.0483 6.46375 3.53101 7.05963C3.01372 7.6555 2.68048 8.38869 2.57172 9.17024C2.30946 11.0458 2.69422 12.9547 3.66256 14.5822L3.94124 15.052L3.97548 15.1022L5.10294 16.6198C5.34174 16.9414 5.64778 17.2072 5.99975 17.3985C6.35172 17.5898 6.74116 17.7021 7.14095 17.7275C7.54075 17.753 7.94129 17.691 8.31469 17.5459C8.68809 17.4008 9.02537 17.1761 9.30305 16.8873C9.33552 16.8535 9.37447 16.8267 9.41757 16.8083C9.46067 16.79 9.50702 16.7805 9.55387 16.7805C9.60071 16.7805 9.64707 16.79 9.69016 16.8083C9.73326 16.8267 9.77221 16.8535 9.80468 16.8873C10.0824 17.1761 10.4196 17.4008 10.793 17.5459C11.1664 17.691 11.567 17.753 11.9668 17.7275C12.3666 17.7021 12.756 17.5898 13.108 17.3985C13.4599 17.2072 13.766 16.9414 14.0048 16.6198L15.1323 15.1014L15.1657 15.0512L15.4452 14.5814C16.414 12.9547 16.7996 11.0463 16.5384 9.17104C16.4613 8.61846 16.2716 8.0876 15.9811 7.6113C15.6905 7.135 15.3053 6.72341 14.8492 6.40201C14.3932 6.08061 13.876 5.85624 13.3298 5.7428C12.7835 5.62935 12.2197 5.62924 11.6734 5.74247L10.1598 6.05618H10.1574C10.1813 5.43512 10.2784 4.76629 10.4687 4.1946C10.6996 3.50347 11.0197 3.08784 11.3764 2.93974C11.5227 2.87871 11.6387 2.76209 11.6989 2.61553C11.7592 2.46897 11.7587 2.30447 11.6977 2.15824C11.6367 2.012 11.5201 1.896 11.3735 1.83574C11.2269 1.77549 11.0625 1.77593 10.9162 1.83696C10.0786 2.1865 9.60244 3.01538 9.3357 3.81639L9.29907 3.92945C9.1032 3.55043 8.84993 3.20396 8.54823 2.90231C8.13532 2.48886 7.63927 2.16787 7.09294 1.96059C6.54661 1.75332 5.96248 1.6645 5.37923 1.70001C5.11306 1.71533 4.86177 1.82781 4.67303 2.01611C4.48429 2.20441 4.37122 2.45544 4.35528 2.72157M6.68505 8.94411C6.40876 8.99905 6.15555 9.19333 5.9971 9.56358C5.83547 9.94099 5.77814 10.5007 5.95252 11.199C5.98836 11.3518 5.96268 11.5124 5.88101 11.6464C5.79934 11.7803 5.66825 11.8767 5.51607 11.9148C5.36389 11.9529 5.20284 11.9295 5.06773 11.8498C4.93261 11.7701 4.83429 11.6405 4.794 11.4889C4.57106 10.5955 4.61326 9.76104 4.8991 9.09301C5.18813 8.4186 5.73116 7.91618 6.45096 7.77286C6.52896 7.75444 6.60988 7.75192 6.68888 7.76544C6.76789 7.77896 6.84336 7.80825 6.9108 7.85155C6.97825 7.89486 7.03629 7.9513 7.08146 8.01751C7.12663 8.08372 7.15801 8.15834 7.17373 8.23694C7.18945 8.31553 7.18918 8.39649 7.17295 8.47498C7.15672 8.55347 7.12486 8.62789 7.07926 8.69381C7.03365 8.75972 6.97525 8.81578 6.90753 8.85865C6.8398 8.90152 6.76414 8.93111 6.68505 8.94411Z" fill="#CA3724"/>
</svg>
