<svg width="77" height="77" viewBox="0 0 77 77" fill="none" xmlns="http://www.w3.org/2000/svg">
<mask id="path-1-inside-1_852_851" fill="white">
<path d="M0 13.5C0 6.04415 6.04416 0 13.5 0H62.78C70.2358 0 76.28 6.04416 76.28 13.5V62.78C76.28 70.2358 70.2358 76.28 62.78 76.28H13.5C6.04415 76.28 0 70.2358 0 62.78V13.5Z"/>
</mask>
<path d="M0 13.5C0 6.04415 6.04416 0 13.5 0H62.78C70.2358 0 76.28 6.04416 76.28 13.5V62.78C76.28 70.2358 70.2358 76.28 62.78 76.28H13.5C6.04415 76.28 0 70.2358 0 62.78V13.5Z" fill="#FFE1A0"/>
<path d="M13.5 0V2.66667H62.78V0V-2.66667H13.5V0ZM76.28 13.5H73.6133V62.78H76.28H78.9467V13.5H76.28ZM62.78 76.28V73.6133H13.5V76.28V78.9467H62.78V76.28ZM0 62.78H2.66667V13.5H0H-2.66667V62.78H0ZM13.5 76.28V73.6133C7.51691 73.6133 2.66667 68.7631 2.66667 62.78H0H-2.66667C-2.66667 71.7086 4.57139 78.9467 13.5 78.9467V76.28ZM76.28 62.78H73.6133C73.6133 68.7631 68.7631 73.6133 62.78 73.6133V76.28V78.9467C71.7086 78.9467 78.9467 71.7086 78.9467 62.78H76.28ZM62.78 0V2.66667C68.7631 2.66667 73.6133 7.51692 73.6133 13.5H76.28H78.9467C78.9467 4.5714 71.7086 -2.66667 62.78 -2.66667V0ZM13.5 0V-2.66667C4.5714 -2.66667 -2.66667 4.57139 -2.66667 13.5H0H2.66667C2.66667 7.51691 7.51692 2.66667 13.5 2.66667V0Z" fill="#FFB411" mask="url(#path-1-inside-1_852_851)"/>
<path d="M27.4395 45C31.3054 45 34.4395 41.866 34.4395 38C34.4395 34.134 31.3054 31 27.4395 31C23.5735 31 20.4395 34.134 20.4395 38C20.4395 41.866 23.5735 45 27.4395 45Z" stroke="#1E1E1E" stroke-width="2.5"/>
<path d="M48.4395 45C52.3054 45 55.4395 41.866 55.4395 38C55.4395 34.134 52.3054 31 48.4395 31C44.5735 31 41.4395 34.134 41.4395 38C41.4395 41.866 44.5735 45 48.4395 45Z" stroke="#1E1E1E" stroke-width="2.5"/>
<path d="M35.4395 38L40.4395 38" stroke="#1E1E1E" stroke-width="2.5"/>
</svg>
