<svg width="168" height="146" viewBox="0 0 168 146" fill="none" xmlns="http://www.w3.org/2000/svg">
<path d="M85.1152 10.6428L84.8864 49.1299L79.4012 49.0969L79.6301 10.6098C80.513 8.46627 84.6055 8.59377 85.1152 10.6428Z" fill="#007F38"/>
<path d="M115.368 23.2336C115.482 22.9837 115.63 22.5108 115.747 22.2413C116.163 19.3528 111.774 16.2372 105.265 15.1473C98.8111 14.0665 91.8102 15.2745 90.196 17.9296C89.989 18.2701 89.8095 18.6597 89.6849 18.9327C88.3001 21.9677 93.1583 24.9503 100.25 26.138C107.343 27.3257 113.983 26.2686 115.368 23.2336Z" fill="#2F443B"/>
<ellipse cx="13.0204" cy="5.63451" rx="13.0204" ry="5.63451" transform="matrix(0.986267 0.165161 0.415118 -0.909767 87.4224 23.958)" fill="#090F0D"/>
<path d="M149.569 30.6467C149.802 30.4279 150.169 29.9711 150.413 29.731C152.128 26.6305 148.749 20.2158 142.194 14.8164C135.693 9.46166 127.599 6.42649 124.692 8.495C124.319 8.76026 123.954 9.10026 123.7 9.33919C120.874 11.9958 124.818 18.5531 131.961 24.437C139.105 30.3209 146.744 33.3034 149.569 30.6467Z" fill="#2F443B"/>
<path d="M84.9059 19.5104C84.9374 19.1492 84.9321 18.4808 84.9597 18.0927C84.4559 14.1204 79.2506 10.9237 72.6389 10.9233C66.082 10.923 59.7158 14.1191 58.9926 18.0472C58.8999 18.551 58.849 19.1146 58.8146 19.5091C58.4314 23.8958 64.0465 26.8088 71.2514 26.8091C78.4563 26.8095 84.5227 23.8971 84.9059 19.5104Z" fill="#2F443B"/>
<path d="M70.1342 10.2328C70.1163 10.3294 70.1342 10.8304 70.1342 10.8304C71.3415 10.8304 74.6108 11.0375 79.2747 11.0376C83.9386 11.0377 86.9205 11.0376 88.4366 11.2215C88.4963 11.0867 88.5255 10.9359 88.5451 10.8304C88.7633 9.65663 84.7333 8.87722 79.6084 8.8771C74.4836 8.87698 71.2265 10.0028 70.1342 10.2328Z" fill="#0A1B15"/>
<path d="M67.8611 22.3797C67.8939 22.0477 67.8883 21.4334 67.917 21.0767C67.3942 17.4258 61.9929 14.4877 55.1323 14.4873C48.3284 14.487 41.7225 17.4246 40.9721 21.0349C40.8758 21.4979 40.8231 22.0159 40.7873 22.3785C40.3897 26.4103 46.2162 29.0876 53.6925 29.0879C61.1687 29.0882 67.4636 26.4115 67.8611 22.3797Z" fill="#2F443B"/>
<path d="M104.011 22.6344L98.1362 49.3191C97.2851 51.5921 92.5669 49.9259 92.7792 48.1398L98.654 21.455C99.8358 20.1334 103.817 21.0857 104.011 22.6344Z" fill="#007F38"/>
<path d="M36.939 15.7932L57.301 39.2677L53.1571 42.8615L32.7951 19.3871C32.3157 17.5064 35.4624 14.8873 36.939 15.7932Z" fill="#007F38"/>
<path d="M19.1489 28.8745L36.6777 12.8788C38.4591 11.7351 41.5453 15.9067 40.5208 17.0902L22.992 33.0859C21.3914 33.3223 18.5711 30.1364 19.1489 28.8745Z" fill="#3B1E16"/>
<path d="M36.8528 10.5368C37.0872 10.7165 37.4594 11.1057 37.7052 11.3043C39.461 14.0355 36.2349 20.4886 29.8448 26.3503C23.5076 32.1635 15.5501 35.9693 12.6333 34.3514C12.2592 34.1439 11.8919 33.8649 11.6359 33.6685C8.78879 31.4854 12.5712 24.8322 19.5347 18.4445C26.4981 12.0569 34.0057 8.35365 36.8528 10.5368Z" fill="#0A1B15"/>
<ellipse cx="17.1097" cy="5.65942" rx="17.1097" ry="5.65942" transform="matrix(0.736918 -0.675982 0.793557 0.608496 6.9519 30.0303)" fill="#2F443B"/>
<ellipse cx="16.7574" cy="6.75261" rx="16.7574" ry="6.75261" transform="matrix(0.771882 0.635765 0.728556 -0.684986 118.76 14.0339)" fill="#090F0D"/>
<ellipse cx="13.0457" cy="7.43742" rx="13.0457" ry="7.43742" transform="matrix(1 5.01451e-05 0.0870144 -0.996207 58.2095 26.7657)" fill="#090F0D"/>
<path d="M70.063 10.3089C70.063 10.3089 73.6325 10.3087 78.7573 10.3089C83.8822 10.309 88.6217 10.3093 88.6217 10.3093C88.6217 10.3093 84.9275 7.83303 79.8027 7.83291C76.1129 8.04836 70.063 10.3089 70.063 10.3089Z" fill="#2F443B"/>
<ellipse cx="13.5369" cy="6.3522" rx="13.5369" ry="6.3522" transform="matrix(1 4.44155e-05 0.0981373 -0.995173 40.1597 29.0481)" fill="#090F0D"/>
<path d="M112.001 19.7338L102.471 51.3667C101.292 54.0458 96.5638 51.8473 97.0123 49.7221L106.543 18.0891C107.947 16.5615 111.995 17.8744 112.001 19.7338Z" fill="#007F38"/>
<path d="M61.7151 24.0768L69.9257 50.4753C70.3207 52.8985 65.3945 53.7813 64.6879 52.1044L56.4774 25.7058C56.8439 23.9549 60.7746 22.8107 61.7151 24.0768Z" fill="#007F38"/>
<path d="M72.0787 50.1712L77.7729 68.4792C77.6645 70.2786 68.7035 72.6153 68.0162 71.5137L62.322 53.2058C63.5476 51.6893 70.8436 49.4745 72.0787 50.1712Z" fill="#006B34"/>
<path d="M103.999 53.1061L98.2724 71.4038C97.1884 72.8312 88.9007 69.7866 88.9764 68.4942L94.7035 50.1965C96.5018 49.6234 103.423 51.8441 103.999 53.1061Z" fill="#006B34"/>
<path d="M91.1988 37.1398L90.3579 59.095C89.7266 61.0043 81.6633 60.2023 81.4308 58.753L82.2718 36.7979C83.7353 35.6108 90.3945 35.9254 91.1988 37.1398Z" fill="#006B34"/>
<path d="M80.8911 36.8129L83.1849 51.2084C82.8358 52.5621 74.797 53.5119 74.3626 52.6142L72.0688 38.2187C73.3384 37.1818 79.9279 36.1718 80.8911 36.8129Z" fill="#006B34"/>
<path d="M71.3904 48.4074L75.5847 62.368C75.4194 63.7561 67.5793 65.7702 67.0289 64.9385L62.8346 50.9779C63.9545 49.7808 70.3503 47.9005 71.3904 48.4074Z" fill="#006B34"/>
<path d="M58.8923 38.2903L70.3513 52.2716C70.9276 53.8547 64.4151 58.668 63.4418 57.9346L51.9829 43.9532C52.4309 42.2645 57.6178 38.0766 58.8923 38.2903Z" fill="#006B34"/>
<path d="M111.651 42.1868L100.781 56.6307C99.3795 57.5655 93.1608 52.3781 93.643 51.2588L104.513 36.8149C106.26 36.8503 111.557 40.898 111.651 42.1868Z" fill="#006B34"/>
<path d="M99.196 49.6411L95.461 63.0583C94.6702 64.1095 88.0504 61.9425 88.0566 60.9971L91.7916 47.5799C93.1772 47.1482 98.6923 48.7227 99.196 49.6411Z" fill="#006B34"/>
<path d="M91.9596 49.7198L91.4446 67.7897C90.4081 69.3504 76.0457 68.5355 75.568 67.3371L76.083 49.2673C78.6304 48.3174 90.4763 48.704 91.9596 49.7198Z" fill="#006B34"/>
<path d="M92.0466 10.4968L89.4677 37.6985C88.9 40.0583 84.0139 38.9795 84.007 37.1808L86.5858 9.97905C87.5977 8.52321 91.6657 8.98315 92.0466 10.4968Z" fill="#007F38"/>
<path d="M75.3126 13.5127L79.1256 36.8762L74.0761 37.6997L70.2631 14.3362C70.8513 12.9012 74.6295 12.3491 75.3126 13.5127Z" fill="#007F38"/>
<path d="M67.6825 17.6864C67.8485 17.9414 68.076 18.4459 68.2466 18.7231C69.0095 21.9617 63.6272 27.0147 55.3676 30.3853C47.1764 33.728 38.1031 34.5741 35.8227 31.9942C35.5303 31.6634 35.2692 31.2662 35.0879 30.9876C33.0716 27.8901 39.0653 22.8413 48.0661 19.1682C57.0668 15.4952 65.6662 14.5889 67.6825 17.6864Z" fill="#0A1B15"/>
<path d="M128.977 15.6916L110.218 40.9227L106.056 37.8277L124.815 12.5966C126.523 11.6789 129.578 14.0559 128.977 15.6916Z" fill="#007F38"/>
<path d="M104.21 18.7293L126.321 27.3435C128.136 28.4327 125.767 33.0492 124.252 32.656L102.14 24.0417C101.218 22.712 102.822 18.7712 104.21 18.7293Z" fill="#3B1E16"/>
<path d="M131.875 24.662C131.793 24.8214 131.153 25.8476 131.058 26.0163C129.284 27.4301 122.967 26.6552 116.233 24.0207C109.555 21.408 104.085 17.5722 104.595 15.6874C104.661 15.4457 105.169 14.4309 105.259 14.2568C105.776 13.0496 112.524 14.1402 119.862 17.011C127.201 19.8819 132.5 23.4548 131.875 24.662Z" fill="#0A1B15"/>
<ellipse cx="14.2681" cy="2.73433" rx="14.2681" ry="2.73433" transform="matrix(0.931274 0.364321 -0.459762 0.888042 106.565 11.8313)" fill="#2F443B"/>
<ellipse cx="17.602" cy="5.8301" rx="17.602" ry="5.8301" transform="matrix(0.925874 -0.377833 0.545537 0.838087 31.7869 25.847)" fill="#2F443B"/>
<path d="M107.503 8.63052C107.527 8.92525 107.501 9.46406 107.52 9.78006C106.841 12.934 100.969 14.9799 93.6335 14.3021C86.3585 13.63 79.3917 10.3979 78.7079 7.15378C78.6203 6.73777 78.5809 6.27776 78.5546 5.95584C78.2619 2.37653 84.5799 0.601692 92.5738 1.34028C100.568 2.07888 107.211 5.05121 107.503 8.63052Z" fill="#0A1B15"/>
<ellipse cx="14.5359" cy="5.66497" rx="14.5359" ry="5.66497" transform="matrix(0.995759 0.0920023 0.081486 0.996675 78.1021 0.0355225)" fill="#2F443B"/>
<rect x="27.249" y="68.2948" width="112.675" height="71.2841" rx="1.5" fill="#84BFEA"/>
<rect x="40.4709" y="94.6239" width="86.1158" height="27.1339" rx="3.5" fill="#A0D1F4"/>
<path d="M60.2467 125.897C60.2467 125.897 60.7067 133.715 58.6371 137.452C55.9423 141.331 49.3672 141.648 45.3001 141.648C41.2329 141.648 34.8304 141.331 32.1355 137.452C29.6636 134.75 30.3534 125.897 30.3534 125.897C30.3534 117.642 37.0452 111.755 45.3001 111.755C53.5549 111.755 60.2467 117.642 60.2467 125.897Z" fill="#5EA6D9"/>
<path d="M136.793 125.897C136.793 125.897 137.253 133.715 135.183 137.452C132.488 141.331 125.913 141.648 121.846 141.648C117.779 141.648 111.377 141.331 108.682 137.452C106.21 134.75 106.9 125.897 106.9 125.897C106.9 117.642 113.591 111.755 121.846 111.755C130.101 111.755 136.793 117.642 136.793 125.897Z" fill="#5EA6D9"/>
<circle cx="45.2999" cy="130.726" r="14.9467" fill="#66B6F1"/>
<circle cx="121.873" cy="130.726" r="14.9467" fill="#66B6F1"/>
<path d="M0.229921 93.9341H13.222C13.222 93.9341 11.9573 102.212 15.9815 105.719C19.4304 108.724 27.1915 107.846 27.1915 107.846V120.666C27.1915 120.666 14.7167 122.767 6.4386 114.629C-1.83949 106.492 0.229921 93.9341 0.229921 93.9341Z" fill="#8FCAF4"/>
<path d="M166.885 93.9341H153.893C153.893 93.9341 155.158 102.212 151.134 105.719C147.685 108.724 139.924 107.846 139.924 107.846V120.666C139.924 120.666 152.399 122.767 160.677 114.629C168.955 106.492 166.885 93.9341 166.885 93.9341Z" fill="#8FCAF4"/>
<circle cx="70.5944" cy="108.996" r="2.64441" fill="#1E1E1E"/>
<circle cx="97.0382" cy="108.996" r="2.64441" fill="#1E1E1E"/>
<path d="M78.7016 108.604C79.5178 107.459 81.787 109.248 83.4914 109.248C85.8541 109.248 88.4531 107.387 89.0759 108.604C89.6988 109.82 88.3886 112.79 83.4914 112.79C78.5942 112.79 77.8854 109.749 78.7016 108.604Z" fill="#1E1E1E"/>
</svg>
