<svg width="77" height="77" viewBox="0 0 77 77" fill="none" xmlns="http://www.w3.org/2000/svg">
<rect x="1.5" y="1.50012" width="73.2755" height="73.2755" rx="13.5" fill="#FFE1A0" stroke="#FFB411" stroke-width="3"/>
<path d="M20.88 39.9123C19.4912 35.5691 22.5173 31.0518 27.0271 30.3786C30.181 29.9078 33.585 29.268 36.1616 28.4442C38.3803 27.7348 40.8444 26.6141 43.12 25.4508C47.2343 23.3475 52.4598 25.2218 53.8671 29.6231C54.8299 32.6342 53.6598 35.9212 50.9076 37.4765C47.9219 39.1638 43.969 41.2011 40.5864 42.2827C37.07 43.407 32.0122 44.1885 28.1528 44.6656C24.8961 45.0682 21.8794 43.0379 20.88 39.9123Z" fill="#2A2A2A"/>
<path d="M49.2662 28.8414C50.4354 30.9163 51.0823 33.3816 41.4846 37.631C39.3445 38.8369 36.6618 38.1324 35.4926 36.0575C34.3233 33.9825 35.1104 31.3228 37.2504 30.1169C47.4501 26.1173 48.097 26.7664 49.2662 28.8414Z" fill="#FFF7E7"/>
<path d="M31.5594 36.356C32.7286 38.4309 35.4523 39.3994 33.3122 40.6053C31.1721 41.8113 28.4894 41.1068 27.3202 39.0318C26.151 36.9569 26.938 34.2972 29.0781 33.0913C31.2181 31.8853 30.3902 34.281 31.5594 36.356Z" fill="#FFF7E7"/>
<path d="M24.1905 52.3393C23.886 51.4727 24.4262 50.5384 25.3285 50.3663C28.7394 49.7159 36.4568 48.1497 41.3778 46.4206C46.1922 44.729 52.3478 41.4697 55.1813 39.9133C55.9944 39.4667 57.0199 39.8527 57.3275 40.7279C57.5583 41.385 57.3053 42.1105 56.7071 42.4673C54.2071 43.9585 47.5846 47.7793 42.4427 49.586C37.2504 51.4104 28.8944 52.8232 25.7993 53.3096C25.0974 53.42 24.426 53.0097 24.1905 52.3393Z" fill="#2A2A2A"/>
</svg>
