<svg width="256" height="241" viewBox="0 0 256 241" fill="none" xmlns="http://www.w3.org/2000/svg">
<path d="M170.169 10.2316C139.999 19.4235 158.436 39.1201 158.436 39.1201C158.436 39.1201 148.38 49.625 153.408 60.1299C158.436 70.6348 178.55 75.4496 190.283 74.5742C207.044 85.0791 253.976 75.8861 252.3 57.5033C260.346 50.1499 253.418 42.1837 248.948 39.1197C262.357 18.1092 238.332 7.16769 228.834 6.29226C223.47 3.14079 211.514 1.03973 207.044 2.35284C188.607 -2.90025 175.198 1.03981 170.169 10.2316Z" fill="#FFF7E7"/>
<circle cx="194.5" cy="96.5" r="9.5" fill="#FFF7E7"/>
<circle cx="186" cy="120" r="6" fill="#FFF7E7"/>
<circle cx="173" cy="136" r="4" fill="#FFF7E7"/>
<path d="M95.2429 89.9091L94.9869 132.976L88.849 132.939L89.1051 89.8721C90.0931 87.4736 94.6725 87.6163 95.2429 89.9091Z" fill="#007F38"/>
<path d="M129.096 103.998C129.223 103.718 129.389 103.189 129.519 102.888C129.985 99.6555 125.073 96.1692 117.791 94.9496C110.568 93.7402 102.735 95.092 100.928 98.063C100.697 98.444 100.496 98.88 100.356 99.1854C98.8067 102.582 104.243 105.919 112.179 107.248C120.115 108.577 127.546 107.394 129.096 103.998Z" fill="#2F443B"/>
<ellipse cx="14.5697" cy="6.30495" rx="14.5697" ry="6.30495" transform="matrix(0.986267 0.165161 0.415118 -0.909767 97.8247 104.809)" fill="#090F0D"/>
<path d="M167.366 112.293C167.627 112.048 168.038 111.537 168.311 111.269C170.23 107.799 166.449 100.621 159.113 94.5793C151.839 88.5874 142.781 85.1911 139.528 87.5058C139.111 87.8026 138.703 88.183 138.419 88.4504C135.257 91.4232 139.67 98.7606 147.663 105.345C155.657 111.929 164.205 115.266 167.366 112.293Z" fill="#2F443B"/>
<path d="M95.0087 99.832C95.044 99.4278 95.038 98.6799 95.0689 98.2456C94.5051 93.8006 88.6805 90.2235 81.2821 90.2231C73.945 90.2228 66.8213 93.7992 66.012 98.1947C65.9082 98.7584 65.8514 99.389 65.8128 99.8305C65.384 104.739 71.6672 107.999 79.7294 107.999C87.7917 108 94.5799 104.741 95.0087 99.832Z" fill="#2F443B"/>
<path d="M78.4794 89.4503C78.4593 89.5585 78.4794 90.119 78.4794 90.119C79.8303 90.119 83.4886 90.3508 88.7075 90.3509C93.9264 90.351 97.2631 90.3509 98.9596 90.5567C99.0264 90.4059 99.0591 90.2372 99.081 90.119C99.3252 88.8056 94.8156 87.9335 89.081 87.9333C83.3463 87.9332 79.7017 89.193 78.4794 89.4503Z" fill="#0A1B15"/>
<path d="M75.936 103.042C75.9726 102.671 75.9664 101.984 75.9985 101.584C75.4134 97.4991 69.3695 94.2114 61.6925 94.2111C54.0791 94.2107 46.6872 97.4978 45.8474 101.538C45.7397 102.056 45.6807 102.635 45.6407 103.041C45.1958 107.553 51.7156 110.549 60.0814 110.549C68.4472 110.549 75.4911 107.554 75.936 103.042Z" fill="#2F443B"/>
<path d="M116.387 103.327L109.813 133.187C108.861 135.731 103.581 133.866 103.819 131.868L110.393 102.008C111.715 100.529 116.17 101.594 116.387 103.327Z" fill="#007F38"/>
<path d="M41.3342 95.6724L64.1191 121.94L59.482 125.962L36.6972 99.6939C36.1607 97.5894 39.6818 94.6587 41.3342 95.6724Z" fill="#007F38"/>
<path d="M21.4274 110.31L41.0419 92.4111C43.0353 91.1313 46.4887 95.7993 45.3423 97.1236L25.7278 115.023C23.9367 115.287 20.7808 111.722 21.4274 110.31Z" fill="#3B1E16"/>
<path d="M41.2378 89.7905C41.5001 89.9916 41.9166 90.427 42.1917 90.6494C44.1564 93.7055 40.5464 100.926 33.396 107.486C26.3047 113.991 17.4004 118.249 14.1365 116.439C13.7179 116.207 13.3069 115.894 13.0204 115.675C9.83452 113.232 14.067 105.787 21.859 98.6392C29.6511 91.4915 38.052 87.3476 41.2378 89.7905Z" fill="#0A1B15"/>
<ellipse cx="19.1456" cy="6.33282" rx="19.1456" ry="6.33282" transform="matrix(0.736918 -0.675982 0.793557 0.608496 7.77905 111.604)" fill="#2F443B"/>
<ellipse cx="18.7513" cy="7.5561" rx="18.7513" ry="7.5561" transform="matrix(0.771882 0.635765 0.728556 -0.684986 132.891 93.7037)" fill="#090F0D"/>
<ellipse cx="14.5979" cy="8.32238" rx="14.5979" ry="8.32238" transform="matrix(1 5.01451e-05 0.0870144 -0.996207 65.1357 107.95)" fill="#090F0D"/>
<path d="M78.3998 89.5356C78.3998 89.5356 82.394 89.5354 88.1287 89.5356C93.8633 89.5357 99.1668 89.5361 99.1668 89.5361C99.1668 89.5361 95.033 86.7651 89.2984 86.765C85.1696 87.0061 78.3998 89.5356 78.3998 89.5356Z" fill="#2F443B"/>
<ellipse cx="15.1477" cy="7.10804" rx="15.1477" ry="7.10804" transform="matrix(1 4.44155e-05 0.0981373 -0.995173 44.9382 110.504)" fill="#090F0D"/>
<path d="M125.328 100.082L114.664 135.479C113.345 138.477 108.054 136.017 108.556 133.638L119.22 98.2415C120.792 96.5321 125.321 98.0012 125.328 100.082Z" fill="#007F38"/>
<path d="M69.0585 104.942L78.2461 134.481C78.6881 137.193 73.1757 138.181 72.3851 136.304L63.1975 106.764C63.6077 104.805 68.0061 103.525 69.0585 104.942Z" fill="#007F38"/>
<path d="M80.6554 134.141L87.0271 154.627C86.9058 156.641 76.8785 159.256 76.1094 158.023L69.7376 137.537C71.1091 135.84 79.2733 133.361 80.6554 134.141Z" fill="#006B34"/>
<path d="M116.374 137.425L109.966 157.9C108.753 159.497 99.4787 156.09 99.5635 154.644L105.972 134.169C107.984 133.528 115.729 136.013 116.374 137.425Z" fill="#006B34"/>
<path d="M102.05 119.559L101.109 144.127C100.403 146.263 91.3803 145.366 91.1201 143.744L92.0611 119.176C93.6987 117.848 101.15 118.2 102.05 119.559Z" fill="#006B34"/>
<path d="M90.5162 119.193L93.0829 135.302C92.6923 136.816 83.697 137.879 83.2108 136.875L80.6441 120.766C82.0648 119.606 89.4384 118.476 90.5162 119.193Z" fill="#006B34"/>
<path d="M79.885 132.167L84.5783 147.789C84.3934 149.342 75.6204 151.596 75.0045 150.665L70.3111 135.044C71.5643 133.704 78.7211 131.6 79.885 132.167Z" fill="#006B34"/>
<path d="M65.8999 120.846L78.7224 136.491C79.3673 138.263 72.0798 143.649 70.9908 142.828L58.1683 127.183C58.6697 125.294 64.4738 120.607 65.8999 120.846Z" fill="#006B34"/>
<path d="M124.936 125.206L112.773 141.369C111.204 142.415 104.246 136.61 104.785 135.358L116.949 119.195C118.903 119.235 124.831 123.764 124.936 125.206Z" fill="#006B34"/>
<path d="M110.999 133.548L106.82 148.561C105.935 149.738 98.5274 147.313 98.5343 146.255L102.714 131.241C104.264 130.758 110.436 132.52 110.999 133.548Z" fill="#006B34"/>
<path d="M102.902 133.636L102.326 153.856C101.166 155.602 85.0944 154.69 84.5599 153.349L85.1362 133.129C87.9866 132.067 101.242 132.499 102.902 133.636Z" fill="#006B34"/>
<path d="M102.999 89.7457L100.113 120.184C99.478 122.825 94.0105 121.618 94.0027 119.605L96.8884 89.1664C98.0208 87.5374 102.573 88.052 102.999 89.7457Z" fill="#007F38"/>
<path d="M84.274 93.1204L88.5407 119.264L82.8903 120.185L78.6236 94.0419C79.2818 92.4362 83.5095 91.8184 84.274 93.1204Z" fill="#007F38"/>
<path d="M75.7359 97.7908C75.9217 98.0762 76.1763 98.6407 76.3672 98.9509C77.2208 102.575 71.1982 108.229 61.9558 112.001C52.7899 115.741 42.6369 116.688 40.0852 113.801C39.758 113.431 39.4659 112.987 39.263 112.675C37.0068 109.209 43.7137 103.559 53.7854 99.449C63.8571 95.3389 73.4797 94.3248 75.7359 97.7908Z" fill="#0A1B15"/>
<path d="M144.324 95.5586L123.333 123.792L118.676 120.329L139.666 92.0954C141.577 91.0685 144.997 93.7283 144.324 95.5586Z" fill="#007F38"/>
<path d="M116.609 98.9577L141.352 108.597C143.383 109.816 140.731 114.982 139.036 114.542L114.294 104.902C113.262 103.414 115.057 99.0046 116.609 98.9577Z" fill="#3B1E16"/>
<path d="M147.567 105.596C147.475 105.775 146.759 106.923 146.652 107.112C144.667 108.694 137.599 107.827 130.064 104.879C122.59 101.955 116.47 97.663 117.041 95.554C117.114 95.2835 117.683 94.148 117.783 93.9532C118.362 92.6023 125.913 93.8227 134.125 97.0351C142.336 100.248 148.266 104.246 147.567 105.596Z" fill="#0A1B15"/>
<ellipse cx="15.9659" cy="3.05968" rx="15.9659" ry="3.05968" transform="matrix(0.931274 0.364321 -0.459762 0.888042 119.245 91.239)" fill="#2F443B"/>
<ellipse cx="19.6965" cy="6.52381" rx="19.6965" ry="6.52381" transform="matrix(0.925874 -0.377833 0.545537 0.838087 35.5691 106.922)" fill="#2F443B"/>
<path d="M120.295 87.6575C120.322 87.9872 120.292 88.5902 120.314 88.9438C119.554 92.473 112.983 94.7623 104.775 94.0039C96.6341 93.2518 88.8384 89.6351 88.0732 86.005C87.9751 85.5395 87.931 85.0247 87.9016 84.6645C87.5741 80.6593 94.6438 78.6733 103.589 79.4998C112.534 80.3262 119.967 83.6522 120.295 87.6575Z" fill="#0A1B15"/>
<ellipse cx="16.2655" cy="6.33904" rx="16.2655" ry="6.33904" transform="matrix(0.995759 0.0920023 0.081486 0.996675 87.3953 78.0398)" fill="#2F443B"/>
<rect x="30.4912" y="154.421" width="126.082" height="79.7661" rx="1.5" fill="#84BFEA"/>
<rect x="45.2864" y="183.883" width="96.3626" height="30.3626" rx="3.5" fill="#A0D1F4"/>
<path d="M67.4155 218.877C67.4155 218.877 67.9302 227.626 65.6144 231.807C62.5989 236.148 55.2415 236.503 50.6904 236.503C46.1393 236.503 38.975 236.148 35.9594 231.807C33.1934 228.784 33.9652 218.877 33.9652 218.877C33.9652 209.64 41.4534 203.053 50.6904 203.053C59.9274 203.053 67.4155 209.64 67.4155 218.877Z" fill="#5EA6D9"/>
<path d="M153.07 218.877C153.07 218.877 153.584 227.626 151.268 231.807C148.253 236.148 140.896 236.503 136.344 236.503C131.793 236.503 124.629 236.148 121.613 231.807C118.847 228.784 119.619 218.877 119.619 218.877C119.619 209.64 127.107 203.053 136.344 203.053C145.581 203.053 153.07 209.64 153.07 218.877Z" fill="#5EA6D9"/>
<circle cx="50.6902" cy="224.281" r="16.7251" fill="#66B6F1"/>
<circle cx="136.374" cy="224.281" r="16.7251" fill="#66B6F1"/>
<path d="M0.257279 183.111H14.7953C14.7953 183.111 13.3801 192.374 17.8831 196.298C21.7424 199.661 30.4269 198.678 30.4269 198.678V213.023C30.4269 213.023 16.4678 215.375 7.20472 206.269C-2.05836 197.163 0.257279 183.111 0.257279 183.111Z" fill="#8FCAF4"/>
<path d="M186.743 183.111H172.205C172.205 183.111 173.62 192.374 169.117 196.298C165.258 199.661 156.573 198.678 156.573 198.678V213.023C156.573 213.023 170.532 215.375 179.795 206.269C189.058 197.163 186.743 183.111 186.743 183.111Z" fill="#8FCAF4"/>
<circle cx="78.9942" cy="199.965" r="2.95906" fill="#1E1E1E"/>
<circle cx="108.585" cy="199.965" r="2.95906" fill="#1E1E1E"/>
<path d="M88.0663 199.526C88.9796 198.245 91.5188 200.247 93.4261 200.247C96.0699 200.247 98.9781 198.165 99.6751 199.526C100.372 200.887 98.906 204.211 93.426 204.211C87.9461 204.211 87.153 200.807 88.0663 199.526Z" fill="#1E1E1E"/>
</svg>
