<svg width="77" height="77" viewBox="0 0 77 77" fill="none" xmlns="http://www.w3.org/2000/svg">
<rect x="1.5" y="1.5" width="73.2755" height="73.2755" rx="13.5" fill="#FFE1A0" stroke="#FFB411" stroke-width="3"/>
<path d="M59.3348 44.7661C59.3348 53.1813 52.4943 60.0032 44.0561 60.0032C35.6179 60.0032 28.7774 53.1813 28.7774 44.7661C28.7774 43.8623 28.8563 42.9768 29.0077 42.1162C29.3149 40.3691 29.9206 38.7244 30.7703 37.2364C31.4098 36.1167 32.1875 35.0856 33.0802 34.1664C34.6526 32.5474 36.582 31.2752 38.7418 30.476C40.3969 29.8636 42.1873 29.529 44.0561 29.529C52.4943 29.529 59.3348 36.3509 59.3348 44.7661Z" fill="#1F1F1F"/>
<path d="M20.1417 18.9293C14.1631 26.2167 31.7637 33.1064 33.0802 34.1664C34.6526 32.5474 36.582 31.2752 38.7418 30.476C38.7418 30.476 26.1203 11.642 20.1417 18.9293Z" fill="#1F1F1F"/>
<path d="M30.7703 37.2364C25.2346 35.7714 19.2089 30.476 17.4845 35.4914C15.7601 40.5067 24.0595 39.9079 29.0077 42.1162C29.3149 40.3691 29.9206 38.7244 30.7703 37.2364Z" fill="#1F1F1F"/>
</svg>
