<svg width="30" height="30" viewBox="0 0 30 30" fill="none" xmlns="http://www.w3.org/2000/svg">
<path d="M28.416 8.85002C28.464 9.02402 28.4034 9.21602 28.302 9.36602L25.068 14.178C24.948 14.364 24.696 14.466 24.4854 14.466C24.4254 14.466 24.2574 14.454 24.192 14.436L21.6 13.8V25.2C21.6 25.548 21.354 25.8 21 25.8H8.40004C8.04604 25.8 7.80004 25.548 7.80004 25.2V13.8L5.47204 14.442C5.20204 14.526 4.96804 14.418 4.81804 14.184L1.60804 9.38402C1.50604 9.22802 1.47604 9.05402 1.52404 8.88002C1.56604 8.70002 1.69204 8.58002 1.85404 8.49602L8.40004 5.40002H11.4C11.754 5.40002 12 5.64602 12 6.00002C12 7.23602 13.734 8.11202 14.97 8.11202C16.206 8.11202 18 7.24202 18 6.00002C18 5.65202 18.246 5.40002 18.6 5.40002H21.6L28.08 8.43602C28.248 8.52002 28.368 8.67002 28.416 8.85002Z" fill="#2A2A2A"/>
</svg>
