<svg width="20" height="20" viewBox="0 0 20 20" fill="none" xmlns="http://www.w3.org/2000/svg">
<path d="M16.7009 7.18594L11.8837 2.36875L12.2221 2.03035C12.5273 1.72513 12.9055 1.57597 13.3567 1.58287C13.8079 1.58977 14.1861 1.74557 14.4913 2.05026L17.0592 4.6181C17.3644 4.92332 17.517 5.29835 17.517 5.74317C17.517 6.188 17.3644 6.56276 17.0592 6.86745L16.7009 7.18594ZM6.88733 17.0393C6.58211 17.3445 6.20735 17.4971 5.76305 17.4971C5.31876 17.4971 4.94373 17.3445 4.63798 17.0393L2.07014 14.4715C1.76492 14.1662 1.6123 13.7915 1.6123 13.3472C1.6123 12.9029 1.76492 12.5279 2.07014 12.2221L2.38863 11.9036L7.20582 16.7208L6.88733 17.0393ZM9.77367 16.4819C9.61442 16.6412 9.42863 16.7208 9.2163 16.7208C9.00398 16.7208 8.81819 16.6412 8.65894 16.4819L2.6275 10.4505C2.46825 10.2912 2.38863 10.1055 2.38863 9.89313C2.38863 9.6808 2.46825 9.49501 2.6275 9.33577L3.76213 8.18123C3.92137 8.02199 4.11061 7.94236 4.32984 7.94236C4.54907 7.94236 4.73804 8.02199 4.89675 8.18123L6.15082 9.43529L9.45517 6.13094L8.20111 4.87688C8.04186 4.71763 7.96224 4.53184 7.96224 4.31951C7.96224 4.10719 8.04186 3.9214 8.20111 3.76215L9.33574 2.60762C9.49499 2.44837 9.68422 2.36875 9.90345 2.36875C10.1227 2.36875 10.3117 2.44837 10.4704 2.60762L16.5018 8.63906C16.6611 8.79831 16.7407 8.98755 16.7407 9.20678C16.7407 9.426 16.6611 9.61498 16.5018 9.77369L15.3473 10.9083C15.188 11.0676 15.0022 11.1472 14.7899 11.1472C14.5776 11.1472 14.3918 11.0676 14.2326 10.9083L12.9785 9.65426L9.67414 12.9586L10.9282 14.2127C11.0874 14.3719 11.1671 14.5609 11.1671 14.7796C11.1671 14.9983 11.0874 15.1875 10.9282 15.3473L9.77367 16.4819Z" fill="#2A2A2A"/>
</svg>
