<svg width="27" height="27" viewBox="0 0 27 27" fill="none" xmlns="http://www.w3.org/2000/svg">
<path fill-rule="evenodd" clip-rule="evenodd" d="M13.4169 26.2045L13.4053 26.2067L13.3304 26.2435L13.3093 26.2478L13.2946 26.2435L13.2197 26.2067C13.2085 26.2031 13.2 26.2049 13.1944 26.2119L13.1902 26.2225L13.1723 26.6737L13.1775 26.6947L13.1881 26.7085L13.2977 26.7865L13.3135 26.7907L13.3262 26.7865L13.4358 26.7085L13.4485 26.6916L13.4527 26.6737L13.4348 26.2235C13.432 26.2123 13.426 26.2059 13.4169 26.2045ZM13.6962 26.0854L13.6825 26.0875L13.4875 26.1856L13.4769 26.1961L13.4738 26.2077L13.4928 26.661L13.498 26.6737L13.5065 26.681L13.7184 26.7791C13.7317 26.7826 13.7419 26.7798 13.7489 26.7707L13.7531 26.7559L13.7173 26.1086C13.7138 26.096 13.7068 26.0882 13.6962 26.0854ZM12.9425 26.0875C12.9378 26.0847 12.9323 26.0838 12.927 26.085C12.9217 26.0862 12.917 26.0893 12.914 26.0939L12.9077 26.1086L12.8718 26.7559C12.8725 26.7685 12.8785 26.777 12.8897 26.7812L12.9056 26.7791L13.1175 26.681L13.128 26.6726L13.1322 26.661L13.1501 26.2077L13.147 26.1951L13.1364 26.1845L12.9425 26.0875Z" fill="#2A2A2A"/>
<path fill-rule="evenodd" clip-rule="evenodd" d="M22.8552 7.07386C23.1517 7.3704 23.3182 7.77254 23.3182 8.19185C23.3182 8.61116 23.1517 9.01329 22.8552 9.30983L11.0028 21.1623C10.8462 21.3189 10.6602 21.4432 10.4556 21.528C10.2509 21.6128 10.0315 21.6564 9.80998 21.6564C9.58845 21.6564 9.36908 21.6128 9.16441 21.528C8.95974 21.4432 8.77378 21.3189 8.61715 21.1623L2.72836 15.2745C2.57733 15.1287 2.45686 14.9542 2.37399 14.7612C2.29111 14.5683 2.24749 14.3608 2.24567 14.1509C2.24384 13.9409 2.28385 13.7327 2.36336 13.5383C2.44287 13.344 2.56029 13.1674 2.70876 13.019C2.85723 12.8705 3.03379 12.7531 3.22813 12.6736C3.42246 12.594 3.63069 12.554 3.84065 12.5559C4.05062 12.5577 4.25812 12.6013 4.45104 12.6842C4.64397 12.7671 4.81846 12.8875 4.96433 13.0386L9.80946 17.8837L20.6182 7.07386C20.7651 6.92692 20.9394 6.81035 21.1314 6.73082C21.3233 6.65129 21.529 6.61035 21.7367 6.61035C21.9445 6.61035 22.1502 6.65129 22.3421 6.73082C22.534 6.81035 22.7084 6.92692 22.8552 7.07386Z" fill="#2A2A2A"/>
</svg>
