<svg width="30" height="30" viewBox="0 0 30 30" fill="none" xmlns="http://www.w3.org/2000/svg">
<path d="M23.4375 30C25.178 30 26.8472 29.3086 28.0779 28.0779C29.3086 26.8472 30 25.178 30 23.4375C30 21.697 29.3086 20.0278 28.0779 18.7971C26.8472 17.5664 25.178 16.875 23.4375 16.875C21.697 16.875 20.0278 17.5664 18.7971 18.7971C17.5664 20.0278 16.875 21.697 16.875 23.4375C16.875 25.178 17.5664 26.8472 18.7971 28.0779C20.0278 29.3086 21.697 30 23.4375 30ZM24.375 20.625V22.5H26.25C26.4986 22.5 26.7371 22.5988 26.9129 22.7746C27.0887 22.9504 27.1875 23.1889 27.1875 23.4375C27.1875 23.6861 27.0887 23.9246 26.9129 24.1004C26.7371 24.2762 26.4986 24.375 26.25 24.375H24.375V26.25C24.375 26.4986 24.2762 26.7371 24.1004 26.9129C23.9246 27.0887 23.6861 27.1875 23.4375 27.1875C23.1889 27.1875 22.9504 27.0887 22.7746 26.9129C22.5988 26.7371 22.5 26.4986 22.5 26.25V24.375H20.625C20.3764 24.375 20.1379 24.2762 19.9621 24.1004C19.7863 23.9246 19.6875 23.6861 19.6875 23.4375C19.6875 23.1889 19.7863 22.9504 19.9621 22.7746C20.1379 22.5988 20.3764 22.5 20.625 22.5H22.5V20.625C22.5 20.3764 22.5988 20.1379 22.7746 19.9621C22.9504 19.7863 23.1889 19.6875 23.4375 19.6875C23.6861 19.6875 23.9246 19.7863 24.1004 19.9621C24.2762 20.1379 24.375 20.3764 24.375 20.625ZM20.625 9.375C20.625 10.8668 20.0324 12.2976 18.9775 13.3525C17.9226 14.4074 16.4918 15 15 15C13.5082 15 12.0774 14.4074 11.0225 13.3525C9.96763 12.2976 9.375 10.8668 9.375 9.375C9.375 7.88316 9.96763 6.45242 11.0225 5.39752C12.0774 4.34263 13.5082 3.75 15 3.75C16.4918 3.75 17.9226 4.34263 18.9775 5.39752C20.0324 6.45242 20.625 7.88316 20.625 9.375Z" fill="#2B2B2B"/>
<path d="M3.75 24.375C3.75 26.25 5.625 26.25 5.625 26.25H15.48C15.1615 25.3465 14.9992 24.3955 15 23.4375C15 22.2318 15.2584 21.0401 15.7578 19.9427C16.2571 18.8453 16.9859 17.8676 17.895 17.0756C17.02 16.9444 16.055 16.8775 15 16.875C5.625 16.875 3.75 22.5 3.75 24.375Z" fill="#2B2B2B"/>
</svg>
