<svg width="44" height="44" viewBox="0 0 44 44" fill="none" xmlns="http://www.w3.org/2000/svg">
<circle cx="22" cy="22" r="22" fill="#FFB411"/>
<g clip-path="url(#clip0_865_4502)">
<path d="M22.5 15L17.25 9L9 9L19.5 21.75L28.1407 18.1875L22.5 15Z" fill="#FFF7E7"/>
<path d="M27.75 9L22.5 15L26.5425 20.484L27.4628 19.3673L36 9L27.75 9Z" fill="#FFD988"/>
<path d="M26.4037 21.0195C26.4637 20.8568 26.502 20.6835 26.502 20.4998C26.502 20.1019 26.3439 19.7204 26.0626 19.4391C25.7813 19.1578 25.3998 18.9998 25.002 18.9998H20.0017C19.6039 18.9998 19.2223 19.1578 18.941 19.4391C18.6597 19.7204 18.5017 20.1019 18.5017 20.4998C18.5017 20.6835 18.5392 20.8568 18.6 21.0195C16.1565 22.389 14.502 24.9998 14.502 27.9998C14.5012 32.418 18.0832 36 22.5015 36C26.9197 36 30.5017 32.418 30.5017 27.9998C30.5017 24.9998 28.8472 22.389 26.4037 21.0195Z" fill="#2A2A2A"/>
<path d="M19.5907 31.0124L20.4742 30.1289C20.5182 30.0809 20.5788 30.0513 20.6437 30.0461C20.7086 30.0408 20.7732 30.0602 20.8244 30.1004C20.8244 30.1004 21.6937 30.7461 22.3664 30.7461C22.9702 30.7461 23.5874 30.2414 23.5874 29.6241C23.5874 29.0069 22.9559 28.4886 21.9187 28.4886H21.4394C21.3696 28.4862 21.3034 28.4573 21.2541 28.4079C21.2048 28.3585 21.1761 28.2922 21.1739 28.2224V27.0584C21.1739 26.9039 21.2999 26.7921 21.4394 26.7921H21.9187C22.9004 26.7921 23.4187 26.3159 23.4187 25.7129C23.4187 25.1091 22.9004 24.6614 22.2967 24.6614C21.6794 24.6614 21.2872 24.9839 21.0772 25.2216C20.9782 25.3341 20.8109 25.3341 20.6992 25.2366L19.8434 24.3951C19.7302 24.2961 19.7444 24.1289 19.8434 24.0306C19.8434 24.0306 20.9932 22.7961 22.5209 22.7961C24.1477 22.7961 25.5502 23.7921 25.5502 25.3626C25.5502 26.4419 24.7364 27.2414 24.1057 27.5354V27.5781C24.7649 27.8586 25.8022 28.7279 25.8022 29.9339C25.8022 31.4624 24.4702 32.6129 22.5344 32.6129C20.7689 32.6129 19.8704 31.7429 19.5764 31.3649C19.4917 31.2644 19.5067 31.1099 19.5907 31.0124Z" fill="#FFF7E7"/>
</g>
<defs>
<clipPath id="clip0_865_4502">
<rect width="27" height="27" fill="white" transform="translate(9 9)"/>
</clipPath>
</defs>
</svg>
