<svg width="44" height="44" viewBox="0 0 44 44" fill="none" xmlns="http://www.w3.org/2000/svg">
<circle cx="22" cy="22" r="22" fill="#FFB411"/>
<g clip-path="url(#clip0_865_4490)">
<path d="M22.5 15L17.25 9L9 9L19.5 21.75L28.1408 18.1875L22.5 15Z" fill="#FFF7E7"/>
<path d="M27.75 9L22.5 15L26.5425 20.484L27.4628 19.3673L36 9L27.75 9Z" fill="#FFD988"/>
<path d="M26.4037 21.0195C26.4637 20.8568 26.502 20.6835 26.502 20.4998C26.502 20.1019 26.3439 19.7204 26.0626 19.4391C25.7813 19.1578 25.3998 18.9998 25.002 18.9998H20.0017C19.6039 18.9998 19.2223 19.1578 18.941 19.4391C18.6597 19.7204 18.5017 20.1019 18.5017 20.4998C18.5017 20.6835 18.5392 20.8568 18.6 21.0195C16.1565 22.389 14.502 24.9998 14.502 27.9998C14.5012 32.418 18.0832 36 22.5015 36C26.9197 36 30.5017 32.418 30.5017 27.9998C30.5017 24.9998 28.8472 22.389 26.4037 21.0195Z" fill="#2A2A2A"/>
<path d="M25.5015 30.6908H22.8443C23.5028 29.7653 24.6533 28.2653 25.1018 27.4651C25.4385 26.8058 25.6485 26.3858 25.6485 25.6426C25.6485 24.0856 24.471 22.8098 22.4655 22.8098C20.7968 22.8098 19.6605 24.1838 19.6605 24.1838C19.5623 24.2963 19.5765 24.4643 19.6748 24.5491L20.5305 25.4183C20.5558 25.445 20.5862 25.4662 20.6199 25.4807C20.6536 25.4953 20.6899 25.5027 20.7267 25.5027C20.7634 25.5027 20.7997 25.4953 20.8334 25.4807C20.8671 25.4662 20.8975 25.445 20.9228 25.4183C21.189 25.1236 21.708 24.7171 22.2825 24.7171C23.0678 24.7171 23.517 25.1933 23.517 25.7266C23.517 26.1188 23.3348 26.5118 23.1525 26.7923C22.3245 28.0538 20.2493 30.8731 19.4363 31.9388V32.2193C19.4363 32.3603 19.548 32.4856 19.7025 32.4856H25.5015C25.5713 32.4828 25.6374 32.4538 25.6867 32.4045C25.7361 32.3552 25.765 32.289 25.7678 32.2193V30.9578C25.7657 30.8878 25.737 30.8212 25.6876 30.7716C25.6381 30.722 25.5716 30.6931 25.5015 30.6908Z" fill="#FFF7E7"/>
</g>
<defs>
<clipPath id="clip0_865_4490">
<rect width="27" height="27" fill="white" transform="translate(9 9)"/>
</clipPath>
</defs>
</svg>
