<svg width="44" height="44" viewBox="0 0 44 44" fill="none" xmlns="http://www.w3.org/2000/svg">
<circle cx="22" cy="22" r="22" fill="#FFB411"/>
<g clip-path="url(#clip0_865_4478)">
<path d="M22.5 15L17.25 9L9 9L19.5 21.75L28.1407 18.1875L22.5 15Z" fill="#FFF7E7"/>
<path d="M27.75 9L22.5 15L26.5425 20.484L27.4628 19.3673L36 9L27.75 9Z" fill="#FFD988"/>
<path d="M26.4037 21.0195C26.4637 20.8568 26.502 20.6835 26.502 20.4998C26.502 20.1019 26.3439 19.7204 26.0626 19.4391C25.7813 19.1578 25.3998 18.9998 25.002 18.9998H20.0017C19.6039 18.9998 19.2223 19.1578 18.941 19.4391C18.6597 19.7204 18.5017 20.1019 18.5017 20.4998C18.5017 20.6835 18.5392 20.8568 18.6 21.0195C16.1565 22.389 14.502 24.9998 14.502 27.9998C14.5012 32.418 18.0832 36 22.5015 36C26.9197 36 30.5017 32.418 30.5017 27.9998C30.5017 24.9998 28.8472 22.389 26.4037 21.0195Z" fill="#2A2A2A"/>
<path d="M23.5531 22.95H22.2624L20.2149 24.549C20.1671 24.6093 20.1379 24.6823 20.1309 24.759V25.6425C20.1309 25.782 20.2434 25.908 20.3836 25.908H21.7299V32.2185C21.7299 32.3595 21.8424 32.4847 21.9961 32.4847H23.5531C23.6926 32.4847 23.8051 32.3587 23.8051 32.2185V23.2155C23.8051 23.076 23.6934 22.95 23.5531 22.95Z" fill="#FFF7E7"/>
</g>
<defs>
<clipPath id="clip0_865_4478">
<rect width="27" height="27" fill="white" transform="translate(9 9)"/>
</clipPath>
</defs>
</svg>
