<svg width="30" height="30" viewBox="0 0 30 30" fill="none" xmlns="http://www.w3.org/2000/svg">
<path d="M26.2475 3.75V6.25C26.2475 11.0825 22.33 15 17.4975 15H16.2475V16.25H22.4975V25C22.4975 26.3808 21.3782 27.5 19.9975 27.5H9.99756C8.61685 27.5 7.49756 26.3808 7.49756 25V16.25H13.7475V12.5C13.7475 7.66751 17.6651 3.75 22.4975 3.75H26.2475ZM6.87256 2.5C10.0333 2.5 12.8287 4.0642 14.527 6.46075C13.2532 8.13855 12.4976 10.231 12.4976 12.5V13.75H11.8726C6.69488 13.75 2.49756 9.55267 2.49756 4.375V2.5H6.87256Z" fill="#2A2A2A"/>
</svg>
