<svg width="40" height="40" viewBox="0 0 40 40" fill="none" xmlns="http://www.w3.org/2000/svg">
<circle cx="20" cy="20" r="20" fill="#FFB411"/>
<path d="M10.625 22.8125C9.87908 22.8125 9.16371 22.5162 8.63626 21.9887C8.10882 21.4613 7.8125 20.7459 7.8125 20C7.8125 19.2541 8.10882 18.5387 8.63626 18.0113C9.16371 17.4838 9.87908 17.1875 10.625 17.1875C11.3709 17.1875 12.0863 17.4838 12.6137 18.0113C13.1412 18.5387 13.4375 19.2541 13.4375 20C13.4375 20.7459 13.1412 21.4613 12.6137 21.9887C12.0863 22.5162 11.3709 22.8125 10.625 22.8125ZM20 22.8125C19.2541 22.8125 18.5387 22.5162 18.0113 21.9887C17.4838 21.4613 17.1875 20.7459 17.1875 20C17.1875 19.2541 17.4838 18.5387 18.0113 18.0113C18.5387 17.4838 19.2541 17.1875 20 17.1875C20.7459 17.1875 21.4613 17.4838 21.9887 18.0113C22.5162 18.5387 22.8125 19.2541 22.8125 20C22.8125 20.7459 22.5162 21.4613 21.9887 21.9887C21.4613 22.5162 20.7459 22.8125 20 22.8125ZM29.375 22.8125C28.6291 22.8125 27.9137 22.5162 27.3863 21.9887C26.8588 21.4613 26.5625 20.7459 26.5625 20C26.5625 19.2541 26.8588 18.5387 27.3863 18.0113C27.9137 17.4838 28.6291 17.1875 29.375 17.1875C30.1209 17.1875 30.8363 17.4838 31.3637 18.0113C31.8912 18.5387 32.1875 19.2541 32.1875 20C32.1875 20.7459 31.8912 21.4613 31.3637 21.9887C30.8363 22.5162 30.1209 22.8125 29.375 22.8125Z" fill="black"/>
</svg>
