<svg width="251" height="250" viewBox="0 0 251 250" fill="none" xmlns="http://www.w3.org/2000/svg">
<g clip-path="url(#clip0_925_598)">
<path d="M172.353 15.625C176.514 15.625 180.504 17.2712 183.446 20.2015C186.388 23.1317 188.041 27.106 188.041 31.25V218.75C188.041 222.894 186.388 226.868 183.446 229.799C180.504 232.729 176.514 234.375 172.353 234.375H78.2283C74.0677 234.375 70.0775 232.729 67.1356 229.799C64.1936 226.868 62.5408 222.894 62.5408 218.75V31.25C62.5408 27.106 64.1936 23.1317 67.1356 20.2015C70.0775 17.2712 74.0677 15.625 78.2283 15.625H172.353ZM78.2283 1.52588e-05C69.9071 1.52588e-05 61.9268 3.29242 56.0428 9.15293C50.1589 15.0134 46.8533 22.962 46.8533 31.25V218.75C46.8533 227.038 50.1589 234.987 56.0428 240.847C61.9268 246.708 69.9071 250 78.2283 250H172.353C180.674 250 188.655 246.708 194.539 240.847C200.423 234.987 203.728 227.038 203.728 218.75V31.25C203.728 22.962 200.423 15.0134 194.539 9.15293C188.655 3.29242 180.674 1.52588e-05 172.353 1.52588e-05L78.2283 1.52588e-05Z" fill="#2A2A2A"/>
<path d="M125.291 218.75C129.451 218.75 133.442 217.104 136.384 214.174C139.325 211.243 140.978 207.269 140.978 203.125C140.978 198.981 139.325 195.007 136.384 192.076C133.442 189.146 129.451 187.5 125.291 187.5C121.13 187.5 117.14 189.146 114.198 192.076C111.256 195.007 109.603 198.981 109.603 203.125C109.603 207.269 111.256 211.243 114.198 214.174C117.14 217.104 121.13 218.75 125.291 218.75Z" fill="#2A2A2A"/>
</g>
<path d="M106.604 142.813C116.645 152.854 132.966 152.854 143.007 142.813C153.048 132.772 153.048 116.451 143.007 106.41C132.966 96.3691 116.645 96.3691 106.604 106.41L99.0204 113.994" stroke="#2A2A2A" stroke-width="7" stroke-linecap="round" stroke-linejoin="round"/>
<path d="M97.5036 97.3095L97.5036 115.511L115.705 115.511" stroke="#2A2A2A" stroke-width="7" stroke-linecap="round" stroke-linejoin="round"/>
<defs>
<clipPath id="clip0_925_598">
<rect width="251" height="250" fill="white"/>
</clipPath>
</defs>
</svg>
