<svg width="26" height="26" viewBox="0 0 26 26" fill="none" xmlns="http://www.w3.org/2000/svg">
<circle cx="13" cy="13" r="13" fill="#FFB411"/>
<path fill-rule="evenodd" clip-rule="evenodd" d="M16.5835 15.5294C17.5099 14.3352 17.9464 12.8329 17.8044 11.3281C17.6624 9.82344 16.9525 8.42934 15.8191 7.42948C14.6857 6.42962 13.214 5.89909 11.7033 5.94584C10.1926 5.99259 8.75649 6.61309 7.68708 7.68112C6.61674 8.74989 5.9942 10.1866 5.94634 11.6984C5.89847 13.2102 6.42888 14.6834 7.42948 15.8177C8.43007 16.9521 9.82554 17.6622 11.3315 17.8034C12.8375 17.9445 14.3406 17.5062 15.5346 16.5776L15.5666 16.611L18.7178 19.7629C18.7868 19.832 18.8687 19.8867 18.9589 19.9241C19.0491 19.9614 19.1457 19.9806 19.2433 19.9806C19.3409 19.9806 19.4376 19.9614 19.5278 19.9241C19.6179 19.8867 19.6999 19.832 19.7689 19.7629C19.8379 19.6939 19.8927 19.612 19.93 19.5218C19.9674 19.4316 19.9866 19.335 19.9866 19.2374C19.9866 19.1398 19.9674 19.0431 19.93 18.9529C19.8927 18.8628 19.8379 18.7808 19.7689 18.7118L16.617 15.5606L16.5835 15.5294ZM15.0414 8.73226C15.4608 9.1449 15.7943 9.6365 16.0228 10.1787C16.2513 10.7209 16.3702 11.303 16.3726 11.8914C16.375 12.4797 16.2608 13.0627 16.0368 13.6068C15.8127 14.1508 15.4832 14.6451 15.0671 15.0612C14.6511 15.4772 14.1568 15.8068 13.6127 16.0308C13.0687 16.2549 12.4857 16.369 11.8973 16.3666C11.3089 16.3642 10.7269 16.2453 10.1847 16.0169C9.64246 15.7884 9.15086 15.4548 8.73822 15.0354C7.91359 14.1972 7.45356 13.0672 7.45835 11.8914C7.46314 10.7155 7.93235 9.58925 8.76378 8.75782C9.59521 7.92639 10.7215 7.45718 11.8973 7.45239C13.0731 7.44761 14.2032 7.90763 15.0414 8.73226Z" fill="#2A2A2A"/>
</svg>

