<svg width="372" height="131" viewBox="0 0 372 131" fill="none" xmlns="http://www.w3.org/2000/svg">
<rect width="372" height="131" rx="20" fill="#FFE9B8"/>
<path d="M17.206 33V28.307L12.057 19.89H14.641L18.365 26.027L22.07 19.89H24.597L19.467 28.307V33H17.206ZM31.0071 33.228C27.0931 33.228 24.1101 30.302 24.1101 26.445C24.1101 22.588 27.0931 19.662 31.0071 19.662C34.9401 19.662 37.9041 22.588 37.9041 26.445C37.9041 30.302 34.9401 33.228 31.0071 33.228ZM31.0071 31.043C33.6101 31.043 35.5861 29.067 35.5861 26.445C35.5861 23.823 33.6101 21.847 31.0071 21.847C28.4231 21.847 26.4471 23.823 26.4471 26.445C26.4471 29.067 28.4231 31.043 31.0071 31.043ZM44.9666 33.228C41.9076 33.228 39.5896 30.967 39.5896 27.946V19.89H41.8316V27.908C41.8316 29.694 43.1806 31.043 44.9666 31.043C46.7716 31.043 48.1016 29.694 48.1016 27.908V19.89H50.3626V27.946C50.3626 30.967 48.0446 33.228 44.9666 33.228ZM52.7462 33V19.89H58.4842C60.9162 19.89 62.7782 21.676 62.7782 24.051C62.7782 26.008 61.4862 27.528 59.6622 27.984L63.1772 33H60.3462L57.0402 28.117H55.0072V33H52.7462ZM58.4272 22.018H55.0072V26.141H58.4272C59.5862 26.141 60.4602 25.248 60.4602 24.07C60.4602 22.892 59.5862 22.018 58.4272 22.018ZM68.9718 33V19.89H75.1278C77.0658 19.89 78.5668 21.296 78.5668 23.196C78.5668 24.45 77.9018 25.533 77.0088 26.027C78.3578 26.445 79.3078 27.832 79.3078 29.447C79.3078 31.518 77.7308 33 75.6598 33H68.9718ZM74.5768 21.923H71.1568V25.267H74.5768C75.4888 25.267 76.2298 24.545 76.2298 23.595C76.2298 22.645 75.5268 21.923 74.5768 21.923ZM75.1088 27.186H71.1568V30.967H75.1088C76.1728 30.967 76.9898 30.131 76.9898 29.067C76.9898 28.003 76.1728 27.186 75.1088 27.186ZM79.5119 33L84.6799 19.89H87.3589L92.5269 33H90.0379L88.9739 30.207H83.0079L81.9439 33H79.5119ZM83.8059 28.117H88.1759L85.9909 22.36L83.8059 28.117ZM93.8438 33V19.89H96.1048V30.872H101.9V33H93.8438ZM102.491 33L107.659 19.89H110.338L115.506 33H113.017L111.953 30.207H105.987L104.923 33H102.491ZM106.785 28.117H111.155L108.97 22.36L106.785 28.117ZM116.823 33V19.89H119.122L125.677 29.162V19.89H127.938V33H125.639L119.084 23.728V33H116.823ZM136.799 33.228C132.885 33.228 129.902 30.302 129.902 26.445C129.902 22.588 132.885 19.662 136.799 19.662C140.086 19.662 142.708 21.733 143.354 24.64H140.96C140.371 22.968 138.756 21.847 136.799 21.847C134.215 21.847 132.239 23.823 132.239 26.445C132.239 29.067 134.215 31.043 136.799 31.043C138.756 31.043 140.371 29.922 140.96 28.25H143.354C142.708 31.157 140.086 33.228 136.799 33.228ZM145.239 33V19.89H153.77V22.018H147.5V25.343H153.143V27.471H147.5V30.872H153.865V33H145.239Z" fill="#2A2A2A"/>
<path d="M53.75 77V63.3875C53.2667 63.7542 52.8333 64.0333 52.45 64.225C52.0667 64.4083 51.6875 64.55 51.3125 64.65L50.9625 62.225C51.3792 62.1083 51.8167 61.9083 52.275 61.625C52.7333 61.3417 53.1583 61.0167 53.55 60.65C53.9417 60.275 54.2417 59.8917 54.45 59.5H56.425V77H53.75ZM59.6063 76.9875L64.3063 69.8125C64.8646 68.9625 65.3313 68.2125 65.7063 67.5625C66.0813 66.9125 66.3604 66.3292 66.5438 65.8125C66.7271 65.2875 66.8188 64.7792 66.8188 64.2875C66.8188 63.4875 66.5896 62.8542 66.1313 62.3875C65.6813 61.9208 65.0604 61.6875 64.2688 61.6875C63.4188 61.6875 62.6438 61.8833 61.9438 62.275C61.2438 62.6667 60.6063 63.15 60.0313 63.725L59.6938 60.925C60.3438 60.4 61.0813 59.9708 61.9063 59.6375C62.7313 59.3042 63.6604 59.1375 64.6938 59.1375C65.7521 59.1375 66.6396 59.3542 67.3563 59.7875C68.0729 60.2125 68.6104 60.7875 68.9688 61.5125C69.3354 62.2292 69.5188 63.025 69.5188 63.9C69.5188 64.625 69.4188 65.3292 69.2188 66.0125C69.0188 66.6958 68.7104 67.425 68.2938 68.2C67.8771 68.9667 67.3396 69.85 66.6813 70.85L64.2813 74.475H70.1688V76.9875H59.6063ZM79.9654 77.35C78.4571 77.35 77.1488 76.9583 76.0404 76.175C74.9404 75.3917 74.0904 74.3083 73.4904 72.925C72.8904 71.5333 72.5904 69.925 72.5904 68.1C72.5904 66.3167 72.9029 64.7542 73.5279 63.4125C74.1529 62.0625 75.0154 61.0167 76.1154 60.275C77.2238 59.525 78.5071 59.15 79.9654 59.15C81.4488 59.15 82.7404 59.525 83.8404 60.275C84.9488 61.025 85.8071 62.0708 86.4154 63.4125C87.0321 64.7542 87.3404 66.3167 87.3404 68.1C87.3404 69.925 87.0404 71.5333 86.4404 72.925C85.8488 74.3083 85.0029 75.3917 83.9029 76.175C82.8029 76.9583 81.4904 77.35 79.9654 77.35ZM79.9654 74.8875C80.8988 74.8875 81.7071 74.6375 82.3904 74.1375C83.0738 73.6375 83.5988 72.8875 83.9654 71.8875C84.3404 70.8792 84.5279 69.6167 84.5279 68.1C84.5279 65.9083 84.1071 64.275 83.2654 63.2C82.4238 62.125 81.3238 61.5875 79.9654 61.5875C78.6571 61.5875 77.5696 62.125 76.7029 63.2C75.8363 64.2667 75.4029 65.9 75.4029 68.1C75.4029 69.6083 75.5904 70.8667 75.9654 71.875C76.3404 72.875 76.8696 73.6292 77.5529 74.1375C78.2363 74.6375 79.0404 74.8875 79.9654 74.8875Z" fill="#2A2A2A"/>
<circle cx="27" cy="68" r="15" fill="#FFB411"/>
<path d="M20.5452 70.9393L20.5302 70.7993L20.5268 70.7634C20.4979 70.4532 20.4849 70.1417 20.4877 69.8301C20.5027 64.5884 24.0627 61.4993 31.321 61.4993H34.666C34.887 61.4993 35.099 61.5871 35.2553 61.7433C35.4115 61.8996 35.4993 62.1116 35.4993 62.3326L35.4977 64.0468C35.0827 71.2976 31.5477 74.8326 25.4993 74.8326H23.3068C23.1635 75.4111 23.0591 75.9985 22.9943 76.5909C22.9823 76.6997 22.949 76.8051 22.8962 76.9009C22.8435 76.9968 22.7723 77.0814 22.6869 77.1498C22.6015 77.2182 22.5034 77.2691 22.3983 77.2996C22.2932 77.3301 22.1831 77.3396 22.0743 77.3276C21.9656 77.3156 21.8602 77.2822 21.7643 77.2295C21.6684 77.1767 21.5839 77.1056 21.5155 77.0202C21.4471 76.9347 21.3962 76.8367 21.3657 76.7316C21.3351 76.6265 21.3256 76.5164 21.3377 76.4076C21.4343 75.5365 21.5955 74.7179 21.821 73.9518L21.7227 73.8301L21.5493 73.5968L21.4185 73.4059L21.2668 73.1618L21.1852 73.0193L21.131 72.9176C20.9986 72.6661 20.888 72.4038 20.8002 72.1334L20.7402 71.9359L20.6693 71.6634L20.6218 71.4401L20.586 71.2384L20.5452 70.9393ZM27.661 67.4043C25.2902 68.4584 23.616 70.0126 22.571 72.0568C22.6255 72.1679 22.686 72.279 22.7527 72.3901L22.9068 72.6243L22.9652 72.7051C23.0318 72.7962 23.1035 72.8876 23.1802 72.9793L23.3443 73.1659H23.8852C24.7493 71.2734 26.1993 69.8776 28.3377 68.9276C28.5397 68.8379 28.6978 68.6716 28.7772 68.4653C28.8566 68.259 28.8507 68.0296 28.761 67.8276C28.6713 67.6256 28.505 67.4675 28.2987 67.3881C28.0924 67.3087 27.863 67.3145 27.661 67.4043Z" fill="#007F38"/>
<path d="M16.96 112.192C14.432 112.192 12.56 110.352 12.56 107.92C12.56 105.488 14.432 103.648 16.912 103.648C19.408 103.648 21.28 105.488 21.28 107.936C21.28 108.16 21.264 108.4 21.232 108.608H14.48C14.752 109.792 15.712 110.576 16.992 110.576C17.936 110.576 18.752 110.16 19.168 109.536H21.152C20.496 111.12 18.896 112.192 16.96 112.192ZM16.912 105.264C15.728 105.264 14.784 106 14.496 107.136H19.36C19.088 106.016 18.128 105.264 16.912 105.264ZM26.2289 112.192C23.9249 112.192 22.2129 110.352 22.2129 107.92C22.2129 105.488 23.9249 103.648 26.2289 103.648C27.4289 103.648 28.4209 104.16 29.0929 105.008V103.84H30.8849V112H29.0929V110.832C28.4209 111.68 27.4289 112.192 26.2289 112.192ZM26.5809 110.464C28.0209 110.464 29.0929 109.36 29.0929 107.92C29.0929 106.48 28.0209 105.376 26.5809 105.376C25.1249 105.376 24.0529 106.48 24.0529 107.92C24.0529 109.36 25.1249 110.464 26.5809 110.464ZM32.8446 112V103.84H34.6366V105.2C35.2766 104.272 36.2206 103.712 37.3726 103.712H37.6606V105.552H37.3726C35.6446 105.552 34.6366 106.528 34.6366 108.032V112H32.8446ZM38.7936 112V103.84H40.5856V104.88C41.2416 104.08 42.1856 103.648 43.3376 103.648C45.2736 103.648 46.5696 104.928 46.5696 106.864V112H44.7776V107.456C44.7776 106.208 43.9776 105.376 42.7456 105.376C41.4496 105.376 40.5856 106.224 40.5856 107.488V112H38.7936ZM52.0041 112V103.84H53.7961V104.784C54.4041 104.048 55.2681 103.648 56.3241 103.648C57.5561 103.648 58.5001 104.208 58.9801 105.136C59.6041 104.176 60.5961 103.648 61.8601 103.648C63.6681 103.648 64.8681 104.864 64.8681 106.704V112H63.0761V107.232C63.0761 106.112 62.3721 105.376 61.2681 105.376C60.1161 105.376 59.3321 106.128 59.3321 107.264V112H57.5401V107.232C57.5401 106.112 56.8361 105.376 55.7321 105.376C54.5801 105.376 53.7961 106.128 53.7961 107.264V112H52.0041ZM70.6376 112.192C68.1416 112.192 66.2696 110.352 66.2696 107.92C66.2696 105.488 68.1416 103.648 70.6376 103.648C73.1176 103.648 75.0056 105.488 75.0056 107.92C75.0056 110.352 73.1176 112.192 70.6376 112.192ZM70.6376 110.464C72.0776 110.464 73.1496 109.36 73.1496 107.92C73.1496 106.48 72.0776 105.376 70.6376 105.376C69.1976 105.376 68.1096 106.48 68.1096 107.92C68.1096 109.36 69.1976 110.464 70.6376 110.464ZM76.449 112V103.84H78.241V105.2C78.881 104.272 79.825 103.712 80.977 103.712H81.265V105.552H80.977C79.249 105.552 78.241 106.528 78.241 108.032V112H76.449ZM85.9583 112.192C83.4303 112.192 81.5583 110.352 81.5583 107.92C81.5583 105.488 83.4303 103.648 85.9103 103.648C88.4063 103.648 90.2783 105.488 90.2783 107.936C90.2783 108.16 90.2623 108.4 90.2303 108.608H83.4783C83.7503 109.792 84.7103 110.576 85.9903 110.576C86.9343 110.576 87.7503 110.16 88.1663 109.536H90.1503C89.4943 111.12 87.8943 112.192 85.9583 112.192ZM85.9103 105.264C84.7263 105.264 83.7823 106 83.4943 107.136H88.3583C88.0863 106.016 87.1263 105.264 85.9103 105.264ZM95.3124 112V100.48H97.1044V105.008C97.7924 104.16 98.7844 103.648 99.9844 103.648C102.272 103.648 104 105.488 104 107.92C104 110.352 102.272 112.192 99.9844 112.192C98.7844 112.192 97.7924 111.68 97.1044 110.832V112H95.3124ZM99.6324 110.464C101.072 110.464 102.144 109.36 102.144 107.92C102.144 106.48 101.072 105.376 99.6324 105.376C98.1924 105.376 97.1044 106.48 97.1044 107.92C97.1044 109.36 98.1924 110.464 99.6324 110.464ZM106.211 115.04L107.539 111.936L104.099 103.84H106.147L108.531 109.792L110.899 103.84H112.899L108.147 115.04H106.211ZM124.749 102.528C124.109 102.528 123.613 102.032 123.613 101.392C123.613 100.736 124.109 100.256 124.749 100.256C125.405 100.256 125.901 100.736 125.901 101.392C125.901 102.032 125.405 102.528 124.749 102.528ZM118.445 112V105.472H117.069V103.84H118.445V103.072C118.445 101.344 119.469 100.384 121.373 100.384H122.365V102.032H121.533C120.717 102.032 120.237 102.496 120.237 103.28V103.84H122.253V105.472H120.237V112H118.445ZM123.853 112V103.84H125.645V112H123.853ZM127.623 112V103.84H129.415V104.88C130.071 104.08 131.015 103.648 132.167 103.648C134.103 103.648 135.399 104.928 135.399 106.864V112H133.607V107.456C133.607 106.208 132.807 105.376 131.575 105.376C130.279 105.376 129.415 106.224 129.415 107.488V112H127.623ZM138.203 102.528C137.563 102.528 137.067 102.032 137.067 101.392C137.067 100.736 137.563 100.256 138.203 100.256C138.859 100.256 139.355 100.736 139.355 101.392C139.355 102.032 138.859 102.528 138.203 102.528ZM137.307 112V103.84H139.099V112H137.307ZM143.836 112.192C141.868 112.192 140.572 111.136 140.572 109.6H142.396C142.396 110.224 142.988 110.64 143.852 110.64C144.652 110.64 145.18 110.272 145.18 109.76C145.18 108.288 140.7 109.104 140.7 106.208C140.7 104.624 141.964 103.648 143.772 103.648C145.628 103.648 146.876 104.656 146.876 106.128H145.052C145.052 105.568 144.524 105.184 143.756 105.184C143.004 105.184 142.508 105.52 142.508 106.016C142.508 107.44 147.004 106.656 147.004 109.568C147.004 111.152 145.74 112.192 143.836 112.192ZM148.424 112V100.48H150.216V104.928C150.872 104.096 151.816 103.648 152.968 103.648C154.904 103.648 156.2 104.928 156.2 106.864V112H154.408V107.456C154.408 106.208 153.608 105.376 152.376 105.376C151.08 105.376 150.216 106.224 150.216 107.488V112H148.424ZM159.004 102.528C158.364 102.528 157.868 102.032 157.868 101.392C157.868 100.736 158.364 100.256 159.004 100.256C159.66 100.256 160.156 100.736 160.156 101.392C160.156 102.032 159.66 102.528 159.004 102.528ZM158.108 112V103.84H159.9V112H158.108ZM161.884 112V103.84H163.676V104.88C164.332 104.08 165.276 103.648 166.428 103.648C168.364 103.648 169.66 104.928 169.66 106.864V112H167.868V107.456C167.868 106.208 167.068 105.376 165.836 105.376C164.54 105.376 163.676 106.224 163.676 107.488V112H161.884ZM175.135 111.792C172.847 111.792 171.119 110.048 171.119 107.728C171.119 105.408 172.847 103.648 175.135 103.648C176.335 103.648 177.327 104.144 178.015 104.944V103.84H179.807V111.12C179.807 113.6 178.143 115.232 175.615 115.232C173.519 115.232 171.919 114.112 171.599 112.368H173.439C173.711 113.12 174.575 113.616 175.631 113.616C177.071 113.616 178.015 112.688 178.015 111.2V110.496C177.327 111.312 176.335 111.792 175.135 111.792ZM175.487 110.08C176.927 110.08 178.015 109.072 178.015 107.728C178.015 106.384 176.927 105.36 175.487 105.36C174.047 105.36 172.959 106.384 172.959 107.728C172.959 109.072 174.047 110.08 175.487 110.08ZM188.861 112C187.085 112 186.125 111.104 186.125 109.488V105.472H184.749V103.84H185.581C185.997 103.84 186.221 103.616 186.221 103.2V101.632H187.917V103.84H189.933V105.472H187.917V109.2C187.917 109.92 188.365 110.352 189.117 110.352H189.933V112H188.861ZM191.415 112V100.48H193.207V104.928C193.863 104.096 194.807 103.648 195.959 103.648C197.895 103.648 199.191 104.928 199.191 106.864V112H197.399V107.456C197.399 106.208 196.599 105.376 195.367 105.376C194.071 105.376 193.207 106.224 193.207 107.488V112H191.415ZM205.002 112.192C202.474 112.192 200.602 110.352 200.602 107.92C200.602 105.488 202.474 103.648 204.954 103.648C207.45 103.648 209.322 105.488 209.322 107.936C209.322 108.16 209.306 108.4 209.274 108.608H202.522C202.794 109.792 203.754 110.576 205.034 110.576C205.978 110.576 206.794 110.16 207.21 109.536H209.194C208.538 111.12 206.938 112.192 205.002 112.192ZM204.954 105.264C203.77 105.264 202.826 106 202.538 107.136H207.402C207.13 106.016 206.17 105.264 204.954 105.264ZM217.876 112C216.1 112 215.14 111.104 215.14 109.488V105.472H213.764V103.84H214.596C215.012 103.84 215.236 103.616 215.236 103.2V101.632H216.932V103.84H218.948V105.472H216.932V109.2C216.932 109.92 217.38 110.352 218.132 110.352H218.948V112H217.876ZM223.887 112.192C221.583 112.192 219.871 110.352 219.871 107.92C219.871 105.488 221.583 103.648 223.887 103.648C225.087 103.648 226.079 104.16 226.751 105.008V103.84H228.543V112H226.751V110.832C226.079 111.68 225.087 112.192 223.887 112.192ZM224.239 110.464C225.679 110.464 226.751 109.36 226.751 107.92C226.751 106.48 225.679 105.376 224.239 105.376C222.783 105.376 221.711 106.48 221.711 107.92C221.711 109.36 222.783 110.464 224.239 110.464ZM233.255 112.192C231.287 112.192 229.991 111.136 229.991 109.6H231.815C231.815 110.224 232.407 110.64 233.271 110.64C234.071 110.64 234.599 110.272 234.599 109.76C234.599 108.288 230.119 109.104 230.119 106.208C230.119 104.624 231.383 103.648 233.191 103.648C235.047 103.648 236.295 104.656 236.295 106.128H234.471C234.471 105.568 233.943 105.184 233.175 105.184C232.423 105.184 231.927 105.52 231.927 106.016C231.927 107.44 236.423 106.656 236.423 109.568C236.423 111.152 235.159 112.192 233.255 112.192ZM237.843 112V100.48H239.635V107.584L243.203 103.84H245.475L241.971 107.472L245.603 112H243.299L240.723 108.784L239.635 109.92V112H237.843ZM246.688 108.656L246.576 103.68V100.96H248.48V103.68L248.368 108.656H246.688ZM247.52 112.128C246.816 112.128 246.288 111.6 246.288 110.912C246.288 110.224 246.816 109.68 247.52 109.68C248.224 109.68 248.752 110.224 248.752 110.912C248.752 111.6 248.224 112.128 247.52 112.128Z" fill="#949494"/>
</svg>
