<svg width="11" height="10" viewBox="0 0 11 10" fill="none" xmlns="http://www.w3.org/2000/svg">
<g clip-path="url(#clip0_880_411)">
<path d="M1.36377 5.75675L1.35573 5.68925L1.35395 5.67197C1.33846 5.52239 1.33146 5.3722 1.33296 5.22197C1.341 2.69474 3.24814 1.20532 7.13654 1.20532H8.9285C9.0469 1.20532 9.16045 1.24765 9.24417 1.323C9.32789 1.39835 9.37493 1.50055 9.37493 1.60711L9.37403 2.43358C9.15171 5.92952 7.25796 7.63389 4.01779 7.63389H2.84323C2.76644 7.9128 2.71051 8.19602 2.67582 8.48166C2.66937 8.53411 2.65151 8.5849 2.62325 8.63113C2.59499 8.67737 2.55689 8.71814 2.51113 8.75112C2.46536 8.7841 2.41282 8.80865 2.35652 8.82335C2.30021 8.83806 2.24124 8.84264 2.18296 8.83684C2.12469 8.83104 2.06826 8.81496 2.01689 8.78953C1.96552 8.76409 1.92021 8.7298 1.88357 8.68861C1.84692 8.64743 1.81965 8.60014 1.80331 8.54947C1.78696 8.49879 1.78187 8.44572 1.78832 8.39327C1.84011 7.97327 1.92642 7.57858 2.04725 7.20921L1.99457 7.15055L1.90171 7.03805L1.83162 6.94604L1.75037 6.82831L1.70662 6.75961L1.67761 6.71059C1.6067 6.58933 1.54741 6.46284 1.50037 6.33251L1.46823 6.23729L1.43029 6.1059L1.40484 5.99822L1.38564 5.90099L1.36377 5.75675ZM5.17582 4.05238C3.90573 4.56064 3.00886 5.30997 2.44904 6.29555C2.4782 6.34912 2.51064 6.40269 2.54636 6.45626L2.62895 6.56916L2.6602 6.60814C2.69591 6.65206 2.7343 6.69613 2.77537 6.74032L2.86332 6.83032H3.15305C3.616 5.91787 4.39279 5.24488 5.53832 4.78684C5.64654 4.74358 5.73123 4.6634 5.77376 4.56393C5.81629 4.46447 5.81318 4.35388 5.76511 4.25648C5.71704 4.15909 5.62794 4.08287 5.51743 4.04459C5.40692 4.00631 5.28404 4.00911 5.17582 4.05238Z" fill="#007F38"/>
</g>
<defs>
<clipPath id="clip0_880_411">
<rect width="10.7143" height="9.64286" fill="white"/>
</clipPath>
</defs>
</svg>
