<svg width="27" height="27" viewBox="0 0 27 27" fill="none" xmlns="http://www.w3.org/2000/svg">
<g clip-path="url(#clip0_865_4480)">
<path d="M13.5 6L8.25 0L0 0L10.5 12.75L19.1407 9.1875L13.5 6Z" fill="#FFF7E7"/>
<path d="M18.75 0L13.5 6L17.5425 11.484L18.4628 10.3673L27 0L18.75 0Z" fill="#FFD988"/>
<path d="M17.4037 12.0195C17.4637 11.8568 17.502 11.6835 17.502 11.4998C17.502 11.1019 17.3439 10.7204 17.0626 10.4391C16.7813 10.1578 16.3998 9.99976 16.002 9.99976L11.0017 9.99976C10.6039 9.99976 10.2223 10.1578 9.94104 10.4391C9.65974 10.7204 9.5017 11.1019 9.5017 11.4998C9.5017 11.6835 9.5392 11.8568 9.59995 12.0195C7.15645 13.389 5.50195 15.9998 5.50195 18.9998C5.5012 23.418 9.0832 27 13.5015 27C17.9197 27 21.5017 23.418 21.5017 18.9998C21.5017 15.9998 19.8472 13.389 17.4037 12.0195Z" fill="#2A2A2A"/>
<path d="M14.5531 13.95H13.2624L11.2149 15.549C11.1671 15.6093 11.1379 15.6823 11.1309 15.759V16.6425C11.1309 16.782 11.2434 16.908 11.3836 16.908H12.7299L12.7299 23.2185C12.7299 23.3595 12.8424 23.4847 12.9961 23.4847H14.5531C14.6926 23.4847 14.8051 23.3587 14.8051 23.2185L14.8051 14.2155C14.8051 14.076 14.6934 13.95 14.5531 13.95Z" fill="#FFF7E7"/>
</g>
<defs>
<clipPath id="clip0_865_4480">
<rect width="27" height="27" fill="white"/>
</clipPath>
</defs>
</svg>
