<svg width="27" height="27" viewBox="0 0 27 27" fill="none" xmlns="http://www.w3.org/2000/svg">
<g clip-path="url(#clip0_865_4492)">
<path d="M13.5 6L8.25 0L0 0L10.5 12.75L19.1408 9.1875L13.5 6Z" fill="#FFF7E7"/>
<path d="M18.75 0L13.5 6L17.5425 11.484L18.4628 10.3673L27 0L18.75 0Z" fill="#FFD988"/>
<path d="M17.4037 12.0195C17.4637 11.8568 17.502 11.6835 17.502 11.4998C17.502 11.1019 17.3439 10.7204 17.0626 10.4391C16.7813 10.1578 16.3998 9.99976 16.002 9.99976L11.0017 9.99976C10.6039 9.99976 10.2223 10.1578 9.94104 10.4391C9.65974 10.7204 9.5017 11.1019 9.5017 11.4998C9.5017 11.6835 9.5392 11.8568 9.59995 12.0195C7.15645 13.389 5.50195 15.9998 5.50195 18.9998C5.5012 23.418 9.0832 27 13.5015 27C17.9197 27 21.5017 23.418 21.5017 18.9998C21.5017 15.9998 19.8472 13.389 17.4037 12.0195Z" fill="#2A2A2A"/>
<path d="M16.5015 21.6908H13.8443C14.5028 20.7653 15.6533 19.2653 16.1018 18.4651C16.4385 17.8058 16.6485 17.3858 16.6485 16.6426C16.6485 15.0856 15.471 13.8098 13.4655 13.8098C11.7968 13.8098 10.6605 15.1838 10.6605 15.1838C10.5623 15.2963 10.5765 15.4643 10.6748 15.5491L11.5305 16.4183C11.5558 16.445 11.5862 16.4662 11.6199 16.4807C11.6536 16.4953 11.6899 16.5027 11.7267 16.5027C11.7634 16.5027 11.7997 16.4953 11.8334 16.4807C11.8671 16.4662 11.8975 16.445 11.9228 16.4183C12.189 16.1236 12.708 15.7171 13.2825 15.7171C14.0678 15.7171 14.517 16.1933 14.517 16.7266C14.517 17.1188 14.3348 17.5118 14.1525 17.7923C13.3245 19.0538 11.2493 21.8731 10.4363 22.9388V23.2193C10.4363 23.3603 10.548 23.4856 10.7025 23.4856H16.5015C16.5713 23.4828 16.6374 23.4538 16.6867 23.4045C16.7361 23.3552 16.765 23.289 16.7678 23.2193V21.9578C16.7657 21.8878 16.737 21.8212 16.6876 21.7716C16.6381 21.722 16.5716 21.6931 16.5015 21.6908Z" fill="#FFF7E7"/>
</g>
<defs>
<clipPath id="clip0_865_4492">
<rect width="27" height="27" fill="white"/>
</clipPath>
</defs>
</svg>
