<svg width="27" height="27" viewBox="0 0 27 27" fill="none" xmlns="http://www.w3.org/2000/svg">
<g clip-path="url(#clip0_865_4504)">
<path d="M13.5 6L8.25 0L0 0L10.5 12.75L19.1407 9.1875L13.5 6Z" fill="#FFF7E7"/>
<path d="M18.75 0L13.5 6L17.5425 11.484L18.4628 10.3673L27 0L18.75 0Z" fill="#FFD988"/>
<path d="M17.4037 12.0195C17.4637 11.8568 17.502 11.6835 17.502 11.4998C17.502 11.1019 17.3439 10.7204 17.0626 10.4391C16.7813 10.1578 16.3998 9.99976 16.002 9.99976L11.0017 9.99976C10.6039 9.99976 10.2223 10.1578 9.94104 10.4391C9.65974 10.7204 9.5017 11.1019 9.5017 11.4998C9.5017 11.6835 9.5392 11.8568 9.59995 12.0195C7.15645 13.389 5.50195 15.9998 5.50195 18.9998C5.5012 23.418 9.0832 27 13.5015 27C17.9197 27 21.5017 23.418 21.5017 18.9998C21.5017 15.9998 19.8472 13.389 17.4037 12.0195Z" fill="#2A2A2A"/>
<path d="M10.5907 22.0124L11.4742 21.1289C11.5182 21.0809 11.5788 21.0513 11.6437 21.0461C11.7086 21.0408 11.7732 21.0602 11.8244 21.1004C11.8244 21.1004 12.6937 21.7461 13.3664 21.7461C13.9702 21.7461 14.5874 21.2414 14.5874 20.6241C14.5874 20.0069 13.9559 19.4886 12.9187 19.4886H12.4394C12.3696 19.4862 12.3034 19.4573 12.2541 19.4079C12.2048 19.3585 12.1761 19.2922 12.1739 19.2224V18.0584C12.1739 17.9039 12.2999 17.7921 12.4394 17.7921H12.9187C13.9004 17.7921 14.4187 17.3159 14.4187 16.7129C14.4187 16.1091 13.9004 15.6614 13.2967 15.6614C12.6794 15.6614 12.2872 15.9839 12.0772 16.2216C11.9782 16.3341 11.8109 16.3341 11.6992 16.2366L10.8434 15.3951C10.7302 15.2961 10.7444 15.1289 10.8434 15.0306C10.8434 15.0306 11.9932 13.7961 13.5209 13.7961C15.1477 13.7961 16.5502 14.7921 16.5502 16.3626C16.5502 17.4419 15.7364 18.2414 15.1057 18.5354V18.5781C15.7649 18.8586 16.8022 19.7279 16.8022 20.9339C16.8022 22.4624 15.4702 23.6129 13.5344 23.6129C11.7689 23.6129 10.8704 22.7429 10.5764 22.3649C10.4917 22.2644 10.5067 22.1099 10.5907 22.0124Z" fill="#FFF7E7"/>
</g>
<defs>
<clipPath id="clip0_865_4504">
<rect width="27" height="27" fill="white"/>
</clipPath>
</defs>
</svg>
